<?xml version="1.0" encoding="UTF-8"?>
<svg version="1.1" xmlns="http://www.w3.org/2000/svg" width="1024" height="1024">
<path d="M0 0 C337.92 0 675.84 0 1024 0 C1024 337.92 1024 675.84 1024 1024 C686.08 1024 348.16 1024 0 1024 C0 686.08 0 348.16 0 0 Z " fill="#172428" transform="translate(0,0)"/>
<path d="M0 0 C11.63190224 9.53368928 20.3746946 21.7853413 29 34 C29.41072754 34.57379395 29.82145508 35.14758789 30.24462891 35.73876953 C46.87701748 59.09645739 58.91856329 85.24396274 66 113 C66.21172852 113.80518066 66.42345703 114.61036133 66.64160156 115.43994141 C71.04008243 132.96067305 70.44271898 150.90850046 70.23828125 168.83984375 C70.22691383 170.04650444 70.22691383 170.04650444 70.21531677 171.27754211 C70.13317122 176.25963225 69.66464566 181.06235036 69 186 C68.91358732 188.47801056 68.86966198 190.95798896 68.875 193.4375 C68.87242187 194.65308594 68.86984375 195.86867188 68.8671875 197.12109375 C68.67121889 199.89580864 68.67121889 199.89580864 70 201 C72.88301496 201.31926005 74.46327317 201.35127244 76.921875 199.7421875 C93.67837529 182.62764233 101.48620678 160.59656665 101.29443359 136.8918457 C101.08617869 128.54263484 100.0951923 120.27261327 99 112 C102.09854257 115.05847521 104.9974736 118.21283564 107.83984375 121.5078125 C109.4192248 123.32995555 111.01843838 125.13496105 112.62890625 126.9296875 C147.70480372 166.38187406 167.91381652 213.22230849 164.86376953 266.37402344 C164.50095804 270.63525986 163.80158023 274.80212899 163 279 C162.8870459 279.66805664 162.7740918 280.33611328 162.65771484 281.02441406 C158.00285903 308.33040894 144.10017623 334.84064866 122 352 C122.33 353.32 122.66 354.64 123 356 C134.81011997 358.16518866 145.1596176 354.64189793 155 348 C162.95522828 341.67956538 169.56937011 334.56368559 175 326 C176.66985531 331.00956592 174.66473705 335.7859613 173.4375 340.8125 C173.16010986 341.94872803 172.88271973 343.08495605 172.59692383 344.25561523 C170.47804613 352.64776231 167.99765685 360.29222079 164 368 C163.67660645 368.62632324 163.35321289 369.25264648 163.02001953 369.89794922 C156.66555228 382.05882944 149.17035768 393.75258689 140 404 C139.34 404 138.68 404 138 404 C137.74347656 404.57878906 137.48695313 405.15757812 137.22265625 405.75390625 C124.48998011 429.14460523 86.97187904 444.70692269 63.02026367 452.03271484 C50.87337273 455.5871003 38.69120209 458.5023058 26 459 C28.67376617 456.89929166 31.30699444 455.23109834 34.3515625 453.72265625 C58.65714599 441.46869783 80.4292035 425.93770463 100 407 C100.80308594 406.236875 101.60617187 405.47375 102.43359375 404.6875 C106.20728742 401.03151787 109.14146241 397.44105402 112 393 C111.41734375 392.90501221 110.8346875 392.81002441 110.234375 392.7121582 C79.70095906 387.6562614 79.70095906 387.6562614 67 380 C67.36351562 379.53851562 67.72703125 379.07703125 68.1015625 378.6015625 C78.17926785 365.52638582 84.4237917 351.1047791 88 335 C88.20496094 334.1028125 88.40992188 333.205625 88.62109375 332.28125 C94.62487399 300.81316048 87.27483745 265.72647335 69.48046875 239.13671875 C68.99191406 238.43160156 68.50335937 237.72648438 68 237 C67.34 236.01 66.68 235.02 66 234 C50.94552072 236.07271816 33.15370285 259.52519269 24.62182617 270.71459961 C3.07584496 300.24585943 -5.02498055 333.37886074 -10 369 C-15.41219554 364.37410457 -18.42115034 358.45975303 -21.875 352.3125 C-26.23905468 344.58668451 -30.77005354 337.17228911 -36 330 C-36.74765625 328.96230469 -37.4953125 327.92460937 -38.265625 326.85546875 C-46.21139359 316.17247673 -54.54198315 306.10240793 -64.19921875 296.92578125 C-66 295 -66 295 -66 293 C-66.80244141 292.69255859 -66.80244141 292.69255859 -67.62109375 292.37890625 C-70.96922918 290.43819721 -73.41001136 287.70959062 -76.0625 284.9375 C-81.04275505 279.83256147 -86.14701414 275.21673963 -91.7578125 270.8046875 C-94 269 -94 269 -95.6796875 267.2578125 C-96.93742113 265.77007929 -96.93742113 265.77007929 -99 266 C-112.13357743 295.2780145 -112.64596883 329.8990783 -101.48925781 359.98925781 C-94.88087565 376.79064271 -85.74965748 391.23428461 -73.83203125 404.7734375 C-73.11696411 405.58917236 -73.11696411 405.58917236 -72.38745117 406.42138672 C-71.08833864 407.89949012 -69.7826838 409.37183622 -68.4765625 410.84375 C-65.34396865 414.63116583 -63.0102111 418.87790393 -60.5625 423.125 C-55.5953873 431.60082351 -50.19656167 439.66805509 -44.45727539 447.63916016 C-43.89000732 448.42983887 -43.32273926 449.22051758 -42.73828125 450.03515625 C-41.98091675 451.07748413 -41.98091675 451.07748413 -41.20825195 452.14086914 C-40 454 -40 454 -39 457 C-80.36631321 450.70290034 -120.47527151 429.99417447 -147 397 C-147.75667969 396.08089844 -148.51335937 395.16179687 -149.29296875 394.21484375 C-161.26611717 379.37952255 -170.97715481 362.74057149 -175 344 C-172.42353886 346.55782489 -169.8784832 349.12803633 -167.37890625 351.76171875 C-162.16502469 357.21642625 -156.83040694 362.16219134 -150.6875 366.5625 C-150.12554932 366.96750732 -149.56359863 367.37251465 -148.98461914 367.78979492 C-143.29106219 371.73870069 -138.08357755 374.44753991 -131.0625 374.1875 C-130.10472656 374.16042969 -129.14695312 374.13335938 -128.16015625 374.10546875 C-127.44730469 374.07066406 -126.73445313 374.03585937 -126 374 C-125.5411933 371.77068924 -125.5411933 371.77068924 -126 369 C-127.7460739 366.71326362 -129.47175359 364.70337805 -131.4375 362.625 C-158.24284554 332.78717851 -166.75097744 291.00114439 -165 252 C-163.11461234 223.73701376 -153.62588105 196.60744619 -138 173 C-137.36578125 172.0409375 -136.7315625 171.081875 -136.078125 170.09375 C-123.86647526 152.53319583 -107.56140327 136.98919977 -88 128 C-87.34 128 -86.68 128 -86 128 C-87.08051677 131.30358956 -88.20377014 134.5853671 -89.40234375 137.84765625 C-89.65306641 138.53666016 -89.90378906 139.22566406 -90.16210938 139.93554688 C-90.66978305 141.32813285 -91.18261343 142.71885232 -91.70117188 144.10742188 C-95.94583127 155.86436849 -97.48587028 166.95227404 -97.375 179.4375 C-97.38660156 180.74009766 -97.39820313 182.04269531 -97.41015625 183.38476562 C-97.35163624 202.97921445 -91.55153074 222.6945469 -79 238 C-78.96261719 236.97003906 -78.92523438 235.94007813 -78.88671875 234.87890625 C-77.14454976 194.53142107 -61.44688365 160.16847368 -41 126 C-26.93017254 102.43411588 -12.8637945 78.84352417 -6 52 C-5.75483643 51.04416016 -5.50967285 50.08832031 -5.25708008 49.10351562 C-2.83642717 38.84216628 -2.04130692 28.61783649 -1.3125 18.125 C-1.18253111 16.35800719 -1.05167723 14.59107925 -0.91992188 12.82421875 C-0.60310193 8.55015624 -0.29817239 4.27540221 0 0 Z " fill="#FDAD25" transform="translate(522,158)"/>
<path d="M0 0 C-1.08051677 3.30358956 -2.20377014 6.5853671 -3.40234375 9.84765625 C-3.65306641 10.53666016 -3.90378906 11.22566406 -4.16210938 11.93554688 C-4.66978305 13.32813285 -5.18261343 14.71885232 -5.70117188 16.10742188 C-9.94583127 27.86436849 -11.48587028 38.95227404 -11.375 51.4375 C-11.38660156 52.74009766 -11.39820313 54.04269531 -11.41015625 55.38476562 C-11.35700389 73.18194817 -6.48888214 89.918924 3 105 C3.38027344 105.68449219 3.76054687 106.36898437 4.15234375 107.07421875 C7.88891435 113.03683141 13.08718811 115.40927258 19.328125 118.26953125 C22.82222405 119.87267376 26.08469875 121.75828211 29.375 123.75 C33.82588825 126.40502047 38.07873093 128.39112357 43 130 C43 130.66 43 131.32 43 132 C43.845625 132.12375 44.69125 132.2475 45.5625 132.375 C49.15236798 133.02770327 52.50824875 133.95247463 56 135 C56 135.99 56 136.98 56 138 C56.66 137.9175 57.32 137.835 58 137.75 C61.37140339 138.03095028 63.61454171 139.21636936 66.5703125 140.7890625 C74.63688896 144.80938196 83.33261137 147.593479 92 150 C92 150.66 92 151.32 92 152 C92.7425 152.144375 93.485 152.28875 94.25 152.4375 C96.52027739 152.90187492 98.75759479 153.41863569 101 154 C100.67 153.01 100.34 152.02 100 151 C101.65 150.67 103.3 150.34 105 150 C104.16666667 151.66666667 103.33333333 153.33333333 102.5 155 C101.68015625 156.64935547 101.68015625 156.64935547 100.84375 158.33203125 C99.59977219 160.82335261 98.32581497 163.296334 97.03125 165.76171875 C92.09562353 175.24312874 88.19713962 184.80077871 85 195 C84.63132812 196.175625 84.26265625 197.35125 83.8828125 198.5625 C79.90155375 212.38888699 77.97847387 226.77097584 76 241 C70.58780446 236.37410457 67.57884966 230.45975303 64.125 224.3125 C59.76094532 216.58668451 55.22994646 209.17228911 50 202 C49.25234375 200.96230469 48.5046875 199.92460937 47.734375 198.85546875 C39.78860641 188.17247673 31.45801685 178.10240793 21.80078125 168.92578125 C20 167 20 167 20 165 C19.19755859 164.69255859 19.19755859 164.69255859 18.37890625 164.37890625 C15.03077082 162.43819721 12.58998864 159.70959062 9.9375 156.9375 C4.95724495 151.83256147 -0.14701414 147.21673963 -5.7578125 142.8046875 C-8 141 -8 141 -9.6796875 139.2578125 C-10.93742113 137.77007929 -10.93742113 137.77007929 -13 138 C-26.13357743 167.2780145 -26.64596883 201.8990783 -15.48925781 231.98925781 C-8.88087565 248.79064271 0.25034252 263.23428461 12.16796875 276.7734375 C12.88303589 277.58917236 12.88303589 277.58917236 13.61254883 278.42138672 C14.91166136 279.89949012 16.2173162 281.37183622 17.5234375 282.84375 C20.65603135 286.63116583 22.9897889 290.87790393 25.4375 295.125 C30.4046127 303.60082351 35.80343833 311.66805509 41.54272461 319.63916016 C42.10999268 320.42983887 42.67726074 321.22051758 43.26171875 322.03515625 C44.01908325 323.07748413 44.01908325 323.07748413 44.79174805 324.14086914 C46 326 46 326 47 329 C5.63368679 322.70290034 -34.47527151 301.99417447 -61 269 C-61.75667969 268.08089844 -62.51335937 267.16179687 -63.29296875 266.21484375 C-75.26611717 251.37952255 -84.97715481 234.74057149 -89 216 C-86.42353886 218.55782489 -83.8784832 221.12803633 -81.37890625 223.76171875 C-76.16502469 229.21642625 -70.83040694 234.16219134 -64.6875 238.5625 C-64.12554932 238.96750732 -63.56359863 239.37251465 -62.98461914 239.78979492 C-57.29106219 243.73870069 -52.08357755 246.44753991 -45.0625 246.1875 C-44.10472656 246.16042969 -43.14695312 246.13335938 -42.16015625 246.10546875 C-41.44730469 246.07066406 -40.73445313 246.03585937 -40 246 C-39.5411933 243.77068924 -39.5411933 243.77068924 -40 241 C-41.7460739 238.71326362 -43.47175359 236.70337805 -45.4375 234.625 C-72.24284554 204.78717851 -80.75097744 163.00114439 -79 124 C-77.11461234 95.73701376 -67.62588105 68.60744619 -52 45 C-51.36578125 44.0409375 -50.7315625 43.081875 -50.078125 42.09375 C-40.68232356 28.58243223 -18.26355303 0 0 0 Z " fill="#FD9727" transform="translate(436,286)"/>
<path d="M0 0 C0.33 0 0.66 0 1 0 C1 6.93 1 13.86 1 21 C5.455 21.99 5.455 21.99 10 23 C16.85304125 24.94466722 23.26159031 27.40625662 29.55078125 30.75390625 C31.40830449 31.69896193 33.31305992 32.55186576 35.234375 33.359375 C39.60837713 35.20562519 43.75813285 37.44203025 47.9375 39.6875 C48.71673828 40.10322266 49.49597656 40.51894531 50.29882812 40.94726562 C52.20057432 41.96230807 54.10048005 42.98079751 56 44 C56.495 43.01 56.495 43.01 57 42 C56.93941406 42.57218262 56.87882812 43.14436523 56.81640625 43.73388672 C52.79214748 82.49833319 56.9896205 120.41621828 82.44091797 151.77539062 C84.97359027 154.81300701 87.55490264 157.80483445 90.16796875 160.7734375 C90.88303589 161.58917236 90.88303589 161.58917236 91.61254883 162.42138672 C92.91166136 163.89949012 94.2173162 165.37183622 95.5234375 166.84375 C98.65603135 170.63116583 100.9897889 174.87790393 103.4375 179.125 C108.4046127 187.60082351 113.80343833 195.66805509 119.54272461 203.63916016 C120.10999268 204.42983887 120.67726074 205.22051758 121.26171875 206.03515625 C122.01908325 207.07748413 122.01908325 207.07748413 122.79174805 208.14086914 C124 210 124 210 125 213 C83.63368679 206.70290034 43.52472849 185.99417447 17 153 C15.86498047 151.62134766 15.86498047 151.62134766 14.70703125 150.21484375 C2.73388283 135.37952255 -6.97715481 118.74057149 -11 100 C-8.42353886 102.55782489 -5.8784832 105.12803633 -3.37890625 107.76171875 C1.83497531 113.21642625 7.16959306 118.16219134 13.3125 122.5625 C13.87445068 122.96750732 14.43640137 123.37251465 15.01538086 123.78979492 C20.70893781 127.73870069 25.91642245 130.44753991 32.9375 130.1875 C33.89527344 130.16042969 34.85304688 130.13335938 35.83984375 130.10546875 C36.55269531 130.07066406 37.26554687 130.03585937 38 130 C38.4588067 127.77068924 38.4588067 127.77068924 38 125 C36.2539261 122.71326362 34.52824641 120.70337805 32.5625 118.625 C5.68460715 88.70642396 -2.57878102 47.07315076 -1 8 C-0.75194748 5.30891258 -0.40552258 2.67320485 0 0 Z " fill="#FD7F2B" transform="translate(358,402)"/>
<path d="M0 0 C3.54705829 3.54705829 4.24659971 6.62235716 4.5625 11.5625 C4.76883806 14.66599292 5.01136396 17.03409187 6 20 C6.068991 22.06145107 6.08467727 24.12501401 6.0625 26.1875 C6.05347656 27.27417969 6.04445313 28.36085938 6.03515625 29.48046875 C6.02355469 30.31191406 6.01195312 31.14335937 6 32 C6.77375977 32.01458252 7.54751953 32.02916504 8.34472656 32.04418945 C34.48039888 32.59207058 34.48039888 32.59207058 46.5625 34.4375 C47.36913086 34.55971924 48.17576172 34.68193848 49.00683594 34.80786133 C52.66006964 35.4187182 55.78933119 36.13403483 59 38 C60.485 38.495 60.485 38.495 62 39 C60.7514947 51.67422044 47.05630328 65.00499985 37.66796875 72.84375 C36.78753906 73.5553125 35.90710938 74.266875 35 75 C35.33 76.32 35.66 77.64 36 79 C47.81011997 81.16518866 58.1596176 77.64189793 68 71 C75.95522828 64.67956538 82.56937011 57.56368559 88 49 C89.66985531 54.00956592 87.66473705 58.7859613 86.4375 63.8125 C86.16010986 64.94872803 85.88271973 66.08495605 85.59692383 67.25561523 C83.47804613 75.64776231 80.99765685 83.29222079 77 91 C76.67660645 91.62632324 76.35321289 92.25264648 76.02001953 92.89794922 C69.66555228 105.05882944 62.17035768 116.75258689 53 127 C52.34 127 51.68 127 51 127 C50.74347656 127.57878906 50.48695313 128.15757812 50.22265625 128.75390625 C37.48998011 152.14460523 -0.02812096 167.70692269 -23.97973633 175.03271484 C-36.12662727 178.5871003 -48.30879791 181.5023058 -61 182 C-58.32623383 179.89929166 -55.69300556 178.23109834 -52.6484375 176.72265625 C-28.34285401 164.46869783 -6.5707965 148.93770463 13 130 C13.80308594 129.236875 14.60617187 128.47375 15.43359375 127.6875 C19.20728742 124.03151787 22.14146241 120.44105402 25 116 C24.12601563 115.85751831 24.12601563 115.85751831 23.234375 115.7121582 C-7.29904094 110.6562614 -7.29904094 110.6562614 -20 103 C-19.63648438 102.53851562 -19.27296875 102.07703125 -18.8984375 101.6015625 C-8.82073215 88.52638582 -2.5762083 74.1047791 1 58 C1.20496094 57.1028125 1.40992188 56.205625 1.62109375 55.28125 C5.10492721 37.02115737 3.17502532 18.14300183 0 0 Z " fill="#FA7D2A" transform="translate(609,435)"/>
<path d="M0 0 C1.56846569 1.21620372 3.1115699 2.46595739 4.625 3.75 C5.70394531 4.64525391 5.70394531 4.64525391 6.8046875 5.55859375 C14.34020829 12.39743431 19.8302286 22.60836941 20.828125 32.83081055 C20.92844364 35.07920217 20.95395163 37.31196435 20.9375 39.5625 C20.93012817 40.7544397 20.93012817 40.7544397 20.92260742 41.97045898 C20.80296137 47.97423663 20.10252852 53.22320561 17.625 58.75 C17.29628906 59.49121094 16.96757813 60.23242188 16.62890625 60.99609375 C12.29490677 69.64909616 5.20822974 78.09243348 -3.375 82.75 C-4.62023437 83.44609375 -4.62023437 83.44609375 -5.890625 84.15625 C-13.27543354 87.63600272 -19.97716873 88.24197334 -28.0625 88.3125 C-29.02414062 88.32708252 -29.98578125 88.34166504 -30.9765625 88.35668945 C-43.71388058 88.1765062 -53.76879775 82.16898141 -63 73.75 C-72.88909823 63.51452355 -76.75101687 50.64859438 -76.67602539 36.74804688 C-76.37443698 25.26356014 -72.02830673 15.48619644 -64.1875 7.0625 C-47.16208721 -8.87057436 -19.99073984 -13.31700199 0 0 Z " fill="#FBFCFC" transform="translate(495.375,703.25)"/>
<path d="M0 0 C7.92 0 15.84 0 24 0 C31.94288426 9.19702388 31.94288426 9.19702388 34.02734375 13.44921875 C37.09950883 19.3552908 40.81176172 24.66115265 44.6875 30.0625 C45.85843093 31.74063567 47.02903202 33.41900156 48.19921875 35.09765625 C49.7224452 37.27913147 51.11409232 39.11409232 53 41 C53.31114746 40.52804199 53.62229492 40.05608398 53.94287109 39.56982422 C62.88498037 26.02704074 72.03024753 12.81825318 82 0 C89.92 0 97.84 0 106 0 C106 30.69 106 61.38 106 93 C97.75 93 89.5 93 81 93 C80.67 75.84 80.34 58.68 80 41 C76.04 46.61 72.08 52.22 68 58 C63.6875 63.9375 63.6875 63.9375 61.82421875 66.484375 C58.82722932 70.61726834 55.91103273 74.80629347 53 79 C49.58093816 77.86031272 49.20612617 77.24110751 47.28515625 74.34375 C46.76244141 73.56644531 46.23972656 72.78914062 45.70117188 71.98828125 C44.8900293 70.75658203 44.8900293 70.75658203 44.0625 69.5 C37.87073074 60.20840231 31.44601623 51.13185632 25 42 C24.67 58.83 24.34 75.66 24 93 C16.08 93 8.16 93 0 93 C0 62.31 0 31.62 0 0 Z " fill="#FAFBFB" transform="translate(532,697)"/>
<path d="M0 0 C12.74625 -0.12375 12.74625 -0.12375 25.75 -0.25 C29.73658691 -0.30462402 29.73658691 -0.30462402 33.80371094 -0.36035156 C35.94725745 -0.37205111 38.09081296 -0.38223992 40.234375 -0.390625 C41.85883545 -0.4213208 41.85883545 -0.4213208 43.51611328 -0.45263672 C53.60301484 -0.45717424 63.30084633 1.7016322 71.25 8.2265625 C79.17988515 16.26265147 81.42263185 24.20307628 81.36132812 35.12280273 C81.12171933 45.34438993 77.90075582 51.61347265 71.09765625 59.1875 C68.82435616 61.15176675 66.79211119 61.9548647 64 63 C64.36762451 63.56396484 64.73524902 64.12792969 65.11401367 64.70898438 C66.80594273 67.30549074 68.49672769 69.90274026 70.1875 72.5 C70.76564453 73.386875 71.34378906 74.27375 71.93945312 75.1875 C73.63179315 77.78815812 75.31729857 80.39309709 77 83 C77.50869629 83.78246094 78.01739258 84.56492187 78.54150391 85.37109375 C78.99831543 86.08394531 79.45512695 86.79679688 79.92578125 87.53125 C80.32837158 88.15580078 80.73096191 88.78035156 81.14575195 89.42382812 C82 91 82 91 82 93 C58.26762236 96.18621201 58.26762236 96.18621201 51.4140625 91.06933594 C46.7602505 85.71873065 43.72000659 79.50553515 41 73 C40.67 72.34 40.34 71.68 40 71 C37.44242141 70.68658574 35.00356179 70.48771761 32.4375 70.375 C29.983125 70.25125 27.52875 70.1275 25 70 C25 77.59 25 85.18 25 93 C16.75 93 8.5 93 0 93 C0 62.31 0 31.62 0 0 Z " fill="#FAFBFB" transform="translate(328,697)"/>
<path d="M0 0 C8.353125 -0.0825 16.70625 -0.165 25.3125 -0.25 C27.92712158 -0.28641602 30.54174316 -0.32283203 33.2355957 -0.36035156 C35.34064924 -0.37204938 37.44571192 -0.3822386 39.55078125 -0.390625 C40.61727905 -0.41108887 41.68377686 -0.43155273 42.78259277 -0.45263672 C52.63861416 -0.45715524 61.08438046 1.96905178 69 8 C69.845625 8.5775 70.69125 9.155 71.5625 9.75 C77.54638706 15.27358806 80.88223421 22.42306591 81.40625 30.5390625 C81.81492451 43.86080685 79.97655041 52.85571101 70.75 63 C66.32872426 67.12951643 61.77243004 69.32509802 56 71 C55.4232251 71.176521 54.8464502 71.35304199 54.25219727 71.53491211 C51.36418717 72.13129793 48.65207195 72.11156638 45.703125 72.09765625 C43.89521484 72.09282227 43.89521484 72.09282227 42.05078125 72.08789062 C40.79652344 72.07951172 39.54226563 72.07113281 38.25 72.0625 C36.98027344 72.05798828 35.71054687 72.05347656 34.40234375 72.04882812 C31.26820905 72.03704566 28.13409858 72.01911036 25 72 C25 78.93 25 85.86 25 93 C16.75 93 8.5 93 0 93 C0 62.31 0 31.62 0 0 Z " fill="#F9FAFA" transform="translate(233,697)"/>
<path d="M0 0 C8.394375 -0.061875 16.78875 -0.12375 25.4375 -0.1875 C28.07032959 -0.21481201 30.70315918 -0.24212402 33.41577148 -0.27026367 C35.52587425 -0.27903371 37.63598214 -0.28667642 39.74609375 -0.29296875 C41.36118835 -0.3159906 41.36118835 -0.3159906 43.00891113 -0.33947754 C53.68201979 -0.34314653 63.88574659 2.48873016 71.98046875 9.78515625 C79.5135854 17.8643837 82.39682306 26.81723217 82.27734375 37.703125 C81.36455922 48.55369045 76.52792308 56.95405074 68.6875 64.25 C59.4785895 71.42295359 50.65938569 71.51261616 39.4375 71.25 C37.93687287 71.2298987 36.43621966 71.21165436 34.93554688 71.1953125 C31.28918208 71.15504342 27.64649978 71.07672355 24 71 C24 78.26 24 85.52 24 93 C16.08 93 8.16 93 0 93 C0 62.31 0 31.62 0 0 Z " fill="#FBFCFC" transform="translate(656,697)"/>
<path d="M0 0 C26.73 0 53.46 0 81 0 C81 7.26 81 14.52 81 22 C71.43 22 61.86 22 52 22 C52 45.43 52 68.86 52 93 C44.08 93 36.16 93 28 93 C28 69.57 28 46.14 28 22 C18.76 22 9.52 22 0 22 C0 14.74 0 7.48 0 0 Z " fill="#F9FAFA" transform="translate(746,697)"/>
<path d="M0 0 C5.86354256 4.0239998 9.75733557 9.27200671 12 16 C13.06316361 24.52273783 10.50998544 32.09944796 5.3125 38.875 C0.13870911 44.33263977 -5.71367334 46.21281109 -13.125 46.5 C-20.78502775 46.18932714 -24.57601658 43.71441492 -29.75 38.25 C-34.92584255 31.93430898 -36.67823175 25.97937877 -36.40625 17.80859375 C-35.42128128 10.99905042 -32.40859604 5.73058744 -27 1.5 C-18.43217778 -4.13756332 -9.22802363 -4.94287227 0 0 Z " fill="#1A272B" transform="translate(480,722)"/>
<path d="M0 0 C6.435 -0.0928125 6.435 -0.0928125 13 -0.1875 C14.33675781 -0.21481201 15.67351563 -0.24212402 17.05078125 -0.27026367 C25.20826564 -0.32704856 31.49044887 -0.05178359 37.875 5.5 C41.45041916 9.70637548 42.29369979 11.8978715 42.3125 17.375 C42.32925781 18.49648438 42.34601562 19.61796875 42.36328125 20.7734375 C41.74789032 26.23916769 38.92333492 29.3472399 35 33 C36.480544 37.2078619 38.60377695 40.58112344 41.125 44.25 C45 49.90391459 45 49.90391459 45 51 C40.09236265 51.87960499 35.86521101 52.2253507 31 51 C28.39899291 48.45033461 26.88668963 45.27949789 25.21337891 42.08105469 C23.04069043 38.10319411 23.04069043 38.10319411 19.23046875 35.84765625 C16.16294095 35.52669495 16.16294095 35.52669495 12 36 C12 40.95 12 45.9 12 51 C8.04 51 4.08 51 0 51 C0 34.17 0 17.34 0 0 Z " fill="#F9B22C" transform="translate(567,817)"/>
<path d="M0 0 C4.62 -0.0825 9.24 -0.165 14 -0.25 C16.16175781 -0.30462402 16.16175781 -0.30462402 18.3671875 -0.36035156 C26.28622986 -0.42869519 32.4645954 -0.25111539 38.50732422 5.4128418 C42.74700955 10.13916006 44.52121142 14.50738583 44.3046875 20.8828125 C43.61903024 25.64725141 41.82990283 29.48508044 38.09375 32.578125 C32.0845852 36.47959767 27.37717479 37.15007398 20.25 37.0625 C19.55261719 37.05798828 18.85523438 37.05347656 18.13671875 37.04882812 C16.42444197 37.0371002 14.71220967 37.01916653 13 37 C13 41.62 13 46.24 13 51 C8.71 51 4.42 51 0 51 C0 34.17 0 17.34 0 0 Z " fill="#F9B12E" transform="translate(430,817)"/>
<path d="M0 0 C3.88286339 3.83265395 7.43652248 7.87219953 11 12 C11.46567383 12.53544434 11.93134766 13.07088867 12.41113281 13.62255859 C13.98564782 15.43310051 15.55566087 17.24747083 17.125 19.0625 C17.62773438 19.63983887 18.13046875 20.21717773 18.6484375 20.81201172 C27.58108328 31.18152058 27.58108328 31.18152058 28.515625 35.23828125 C26.24800883 52.94569578 16.70493094 70.6396516 3 82 C-2.28707313 85.53851078 -10.89252688 89.76141934 -17.296875 88.57421875 C-17.85890625 88.38472656 -18.4209375 88.19523437 -19 88 C-18.4912885 83.44621154 -16.77812044 81.16632398 -13.875 77.6875 C-5.634038 67.25675895 -1.30433025 55.01060312 1 42 C1.18433594 41.05898438 1.36867188 40.11796875 1.55859375 39.1484375 C2.09252693 35.34002918 2.1908553 31.58762129 2.1875 27.75 C2.18814453 26.9780127 2.18878906 26.20602539 2.18945312 25.41064453 C2.11357179 16.86882057 1.11984747 8.45884786 0 0 Z " fill="#FCC22B" transform="translate(621,270)"/>
<path d="M0 0 C4.29 0 8.58 0 13 0 C18.49772365 12.32893771 23.77371312 24.71324132 28.625 37.3125 C29.28121338 39.01092041 29.28121338 39.01092041 29.95068359 40.74365234 C33 48.74059199 33 48.74059199 33 51 C28.71 51 24.42 51 20 51 C19.01 48.03 18.02 45.06 17 42 C9.74 42 2.48 42 -5 42 C-5.495 44.475 -5.495 44.475 -6 47 C-6.66 48.32 -7.32 49.64 -8 51 C-12.29 51 -16.58 51 -21 51 C-19.06291904 44.99327187 -16.92168596 39.17458962 -14.4375 33.375 C-14.10105469 32.58246826 -13.76460938 31.78993652 -13.41796875 30.97338867 C-9.00996307 20.62116337 -4.50449927 10.31050344 0 0 Z " fill="#F7B330" transform="translate(510,817)"/>
<path d="M0 0 C-3.94329658 5.53607912 -8.24825143 10.60643445 -12.8515625 15.60546875 C-15.00040246 18.00044856 -17.01343044 20.46959578 -19 23 C-17.61421546 25.94551521 -16.01171482 28.51885057 -14.1015625 31.15234375 C-13.53953125 31.92900391 -12.9775 32.70566406 -12.3984375 33.50585938 C-11.81320312 34.30830078 -11.22796875 35.11074219 -10.625 35.9375 C-10.0475 36.73607422 -9.47 37.53464844 -8.875 38.35742188 C-6.50935754 41.61693152 -4.14183634 44.82717999 -1.5859375 47.94140625 C0 50 0 50 0 52 C-4.82872742 52.68000571 -9.19186144 52.9148678 -14 52 C-17.89080115 48.89176792 -20.35374454 45.18242918 -23 41 C-24.01370592 39.59898191 -25.03317766 38.20208516 -26.0625 36.8125 C-26.701875 35.884375 -27.34125 34.95625 -28 34 C-31.16115776 35.36983503 -31.9927092 35.9890638 -34 39 C-34.4603764 42.19806665 -34.4603764 42.19806665 -34.625 45.6875 C-34.74875 47.770625 -34.8725 49.85375 -35 52 C-39.29 52 -43.58 52 -48 52 C-48 35.17 -48 18.34 -48 1 C-44.04 1 -40.08 1 -36 1 C-36 8.26 -36 15.52 -36 23 C-31.71970831 19.43309026 -28.86005123 16.8482858 -25.5625 12.625 C-24.78390625 11.67238281 -24.0053125 10.71976563 -23.203125 9.73828125 C-21.88402246 8.09875841 -20.59217119 6.43583681 -19.359375 4.73046875 C-14.16669694 -1.70792753 -7.73287731 -0.67568831 0 0 Z " fill="#F6B42C" transform="translate(685,816)"/>
<path d="M0 0 C-0.82292254 3.98467756 -2.66053731 6.67947232 -5 10 C-7.24482516 9.50114996 -9.1621284 8.92343936 -11.25 7.9375 C-14.97143987 6.66882732 -18.07743488 6.86703169 -22 7 C-22.5534764 9.07553648 -23 10.84365964 -23 13 C-21.83984375 13.23783203 -21.83984375 13.23783203 -20.65625 13.48046875 C-12.43582511 15.32192531 -6.2990097 17.45356457 -0.5 23.6875 C1.55690354 28.22982864 1.7980149 32.09220833 1 37 C-1.71064541 42.32448205 -4.59282047 45.08527178 -10.125 47.1875 C-19.30852898 49.11307866 -26.46885141 47.88940884 -35 44 C-35.99 43.34 -36.98 42.68 -38 42 C-37.46884894 37.48521602 -35.63379708 34.65333143 -33 31 C-31.2984375 31.9590625 -31.2984375 31.9590625 -29.5625 32.9375 C-25.15184634 35.15067497 -20.9349767 36.04866841 -16 36 C-14.515 35.505 -14.515 35.505 -13 35 C-13 33.35 -13 31.7 -13 30 C-14.24136719 29.56429687 -15.48273438 29.12859375 -16.76171875 28.6796875 C-18.40399653 28.07908306 -20.04590452 27.47746681 -21.6875 26.875 C-22.50412109 26.59140625 -23.32074219 26.3078125 -24.16210938 26.015625 C-29.72048817 23.94529768 -32.67270913 21.94827873 -36 17 C-37.35358177 12.9392547 -37.82031176 9.24531048 -36.31640625 5.12890625 C-28.69036444 -9.58524082 -12.29853043 -6.1056534 0 0 Z " fill="#F5B22F" transform="translate(404,821)"/>
<path d="M0 0 C3.50625 -0.061875 7.0125 -0.12375 10.625 -0.1875 C11.71893066 -0.21481201 12.81286133 -0.24212402 13.93994141 -0.27026367 C19.3735907 -0.31661566 23.35228381 -0.15806356 28 3 C31.46080303 6.91617185 32.61249767 9.94337398 32.3203125 15.046875 C31.58242966 19.54616059 29.77724143 22.298587 26.4375 25.3125 C22.94096194 27.7331802 21.20529551 28.12186951 16.9921875 28.09765625 C16.1038623 28.09515869 15.21553711 28.09266113 14.30029297 28.09008789 C13.16994629 28.08098389 12.03959961 28.07187988 10.875 28.0625 C5.491875 28.0315625 5.491875 28.0315625 0 28 C0 18.76 0 9.52 0 0 Z " fill="#19272B" transform="translate(680,719)"/>
<path d="M0 0 C3.320625 -0.061875 6.64125 -0.12375 10.0625 -0.1875 C11.09511963 -0.21481201 12.12773926 -0.24212402 13.19165039 -0.27026367 C18.9297819 -0.32173915 22.94970567 0.21293598 28 3 C31.27833878 6.59559737 31.45636633 10.10887305 31.29296875 14.78515625 C30.69656664 19.29395622 28.61037896 23.22278541 25 26 C20.10242238 28.6785155 15.10274995 28.22373711 9.6875 28.125 C4.8921875 28.063125 4.8921875 28.063125 0 28 C0 18.76 0 9.52 0 0 Z " fill="#19262C" transform="translate(353,719)"/>
<path d="M0 0 C3.135 -0.0825 6.27 -0.165 9.5 -0.25 C10.47130859 -0.28641602 11.44261719 -0.32283203 12.44335938 -0.36035156 C18.49181568 -0.43663397 22.95843831 0.56555323 28 4 C30.91096205 7.09289717 31.23406255 9.82559761 31.4375 13.9375 C31.26771584 18.69145644 30.36052495 21.46714044 27 25 C21.12496349 28.22821017 16.17042552 28.37158142 9.5625 28.1875 C4.8290625 28.0946875 4.8290625 28.0946875 0 28 C0 18.76 0 9.52 0 0 Z " fill="#182529" transform="translate(258,719)"/>
<path d="M0 0 C12.41836527 -0.40939666 12.41836527 -0.40939666 17 3 C18.50662097 6.01324195 18.17770373 8.68286377 18 12 C16 14 16 14 12.3046875 14.1953125 C10.82799892 14.182009 9.35137642 14.15814835 7.875 14.125 C7.12089844 14.11597656 6.36679687 14.10695313 5.58984375 14.09765625 C3.72642746 14.0740687 1.86317407 14.03819719 0 14 C0 9.38 0 4.76 0 0 Z " fill="#202622" transform="translate(443,828)"/>
<path d="M0 0 C12.21934594 -0.49371095 12.21934594 -0.49371095 15.890625 1.828125 C18 4 18 4 18.5625 7 C17.86335642 10.72876576 17.0089652 11.72504731 14 14 C9.2805118 14.53387876 4.76525513 14.17649093 0 14 C0 9.38 0 4.76 0 0 Z " fill="#292E21" transform="translate(579,828)"/>
<path d="M0 0 C1.17691406 0.00257813 2.35382812 0.00515625 3.56640625 0.0078125 C5.32791016 0.00394531 5.32791016 0.00394531 7.125 0 C10.12890625 0.1328125 10.12890625 0.1328125 12.12890625 1.1328125 C12.62390625 9.5478125 12.62390625 9.5478125 13.12890625 18.1328125 C14.44890625 18.4628125 15.76890625 18.7928125 17.12890625 19.1328125 C15.5055082 20.84165255 13.83571572 22.50727967 12.12890625 24.1328125 C11.46890625 24.1328125 10.80890625 24.1328125 10.12890625 24.1328125 C10.12890625 16.8728125 10.12890625 9.6128125 10.12890625 2.1328125 C6.16890625 2.1328125 2.20890625 2.1328125 -1.87109375 2.1328125 C-1.87109375 18.9628125 -1.87109375 35.7928125 -1.87109375 53.1328125 C-2.53109375 53.1328125 -3.19109375 53.1328125 -3.87109375 53.1328125 C-3.89636067 45.74553148 -3.91392535 38.35826152 -3.92602539 30.97094727 C-3.93106738 28.45564355 -3.93790078 25.94034278 -3.9465332 23.42504883 C-3.95860469 19.81851475 -3.96432324 16.21201927 -3.96875 12.60546875 C-3.97391129 11.47319351 -3.97907257 10.34091827 -3.98439026 9.17433167 C-3.98446579 8.13332809 -3.98454132 7.09232452 -3.98461914 6.01977539 C-3.98683975 5.09822159 -3.98906036 4.17666779 -3.99134827 3.22718811 C-3.80292331 -0.05445683 -3.33589825 0.15431366 0 0 Z " fill="#27220E" transform="translate(638.87109375,814.8671875)"/>
<path d="M0 0 C11.65774969 9.55487425 20.28767351 21.81622428 29 34 C28.505 34.99 28.505 34.99 28 36 C25.63035638 33.84577853 24.42019486 31.84038972 23 29 C22.02246356 27.97803008 21.0194119 26.98020375 20 26 C16 21.31428571 16 21.31428571 16 19 C15.34 19 14.68 19 14 19 C13.67 17.68 13.34 16.36 13 15 C12.34 15 11.68 15 11 15 C11 14.34 11 13.68 11 13 C10.34 13 9.68 13 9 13 C8.896875 12.360625 8.79375 11.72125 8.6875 11.0625 C8.460625 10.381875 8.23375 9.70125 8 9 C7.01 8.67 6.02 8.34 5 8 C4.67 7.34 4.34 6.68 4 6 C3.01 5.67 2.02 5.34 1 5 C1 13.25 1 21.5 1 30 C0.34 30 -0.32 30 -1 30 C-0.96519531 30.73863281 -0.93039062 31.47726563 -0.89453125 32.23828125 C-0.72002512 38.77810627 -1.34140343 44.22320778 -3.28125 50.46484375 C-3.94477096 52.80519757 -4.25408104 54.89595522 -4.4375 57.3125 C-5.1037194 61.67993829 -6.33681339 63.56363018 -9 67 C-10 65 -10 65 -9.328125 62.453125 C-8.61988295 60.34892761 -7.91155237 58.24476001 -7.203125 56.140625 C-3.38750825 43.60243333 -2.21538308 31.12405956 -1.3125 18.125 C-1.18253111 16.35800719 -1.05167723 14.59107925 -0.91992188 12.82421875 C-0.60310193 8.55015624 -0.29817239 4.27540221 0 0 Z " fill="#E5B849" transform="translate(522,158)"/>
<path d="M0 0 C0.33 0 0.66 0 1 0 C1.02505615 1.29736084 1.0501123 2.59472168 1.07592773 3.93139648 C1.16981752 8.72658856 1.27008249 13.5216295 1.37231445 18.31665039 C1.41573334 20.39539057 1.45740312 22.47416803 1.49731445 24.55297852 C1.55484921 27.53413145 1.61859119 30.51509549 1.68359375 33.49609375 C1.70030624 34.43150497 1.71701874 35.3669162 1.73423767 36.33067322 C1.75418289 37.19149002 1.77412811 38.05230682 1.79467773 38.93920898 C1.81022202 39.70087875 1.8257663 40.46254852 1.84178162 41.24729919 C1.81379329 43.02735006 1.81379329 43.02735006 3 44 C3.32237212 46.57897694 3.51267304 49.15931821 3.71875 51.75 C3.76200665 53.96665352 3.76200665 53.96665352 5 55 C5.04092937 57.33297433 5.04241723 59.66705225 5 62 C5.66 62 6.32 62 7 62 C7.144375 63.134375 7.28875 64.26875 7.4375 65.4375 C7.61171478 68.80777201 7.61171478 68.80777201 9 70 C9.04063832 71.66617115 9.042721 73.33388095 9 75 C9.66 75 10.32 75 11 75 C11.13535156 75.57105469 11.27070313 76.14210938 11.41015625 76.73046875 C13.21173391 83.51605167 16.12572582 89.16765033 19.671875 95.21484375 C21 98 21 98 20 101 C10.79808838 85.07923227 4.23294268 68.16822715 1 50 C0.79632813 48.86820312 0.59265625 47.73640625 0.3828125 46.5703125 C-1.91681344 31.41798266 -2.3003767 15.16408324 0 0 Z " fill="#D98645" transform="translate(358,402)"/>
<path d="M0 0 C3.22793788 0.70694507 4.93804095 1.31945323 7 4 C7 4.99 7 5.98 7 7 C7.66 7 8.32 7 9 7 C13.33015619 11.77810338 17.70070002 17.58916823 19 24 C19.66 24 20.32 24 21 24 C24 28.38461538 24 28.38461538 24 31 C24.99 31.33 25.98 31.66 27 32 C28.1875 35.5625 28.1875 35.5625 29 39 C29.66 39 30.32 39 31 39 C31.25394531 39.51949219 31.50789063 40.03898437 31.76953125 40.57421875 C33.70043889 44.48665708 35.68488463 48.2958154 38 52 C38.33 49.03 38.66 46.06 39 43 C39.66 43 40.32 43 41 43 C41.09038099 48.15171623 40.84681133 52.91913204 40 58 C34.58780446 53.37410457 31.57884966 47.45975303 28.125 41.3125 C22.47597246 31.31185894 16.31305949 21.95812388 9.375 12.8125 C6.18376394 8.58479411 3.05068107 4.32999893 0 0 Z " fill="#DB7D40" transform="translate(472,469)"/>
<path d="M0 0 C8.91 0 17.82 0 27 0 C27 0.33 27 0.66 27 1 C18.42 1 9.84 1 1 1 C1 17.17 1 33.34 1 50 C3.97 50 6.94 50 10 50 C9.98839844 48.92878906 9.97679687 47.85757813 9.96484375 46.75390625 C9.95546701 45.35677257 9.94636669 43.95963701 9.9375 42.5625 C9.92493164 41.50192383 9.92493164 41.50192383 9.91210938 40.41992188 C9.90346412 38.61306441 9.94779989 36.80612397 10 35 C11 34 11 34 13.94140625 33.90234375 C15.13636719 33.91394531 16.33132813 33.92554688 17.5625 33.9375 C19.35880859 33.95103516 19.35880859 33.95103516 21.19140625 33.96484375 C22.11824219 33.97644531 23.04507813 33.98804688 24 34 C26.125 38.625 26.125 38.625 25 42 C24.71125 41.195625 24.4225 40.39125 24.125 39.5625 C21.55621691 36.4648498 20.69049191 36.54951905 16.8125 36.1875 C14.4303125 36.0946875 14.4303125 36.0946875 12 36 C12 40.95 12 45.9 12 51 C8.04 51 4.08 51 0 51 C0 34.17 0 17.34 0 0 Z " fill="#E8B14C" transform="translate(567,817)"/>
<path d="M0 0 C0.66 0 1.32 0 2 0 C2.0276619 1.49988961 2.0466861 2.99993869 2.0625 4.5 C2.07410156 5.3353125 2.08570313 6.170625 2.09765625 7.03125 C2 10 2 10 1.51171875 13.5859375 C-2.0604351 40.6718498 2.41352027 69.36747313 13.3359375 94.3203125 C14 96 14 96 14 98 C13.34 98 12.68 98 12 98 C11.34 95.03 10.68 92.06 10 89 C9.34 89 8.68 89 8 89 C7.85377197 88.42967041 7.70754395 87.85934082 7.55688477 87.27172852 C6.89565885 84.70105211 6.22915229 82.13177426 5.5625 79.5625 C5.33240234 78.66466797 5.10230469 77.76683594 4.86523438 76.84179688 C4.53168945 75.56079102 4.53168945 75.56079102 4.19140625 74.25390625 C3.88505249 73.06776733 3.88505249 73.06776733 3.57250977 71.85766602 C3.15967047 70.0038412 3.15967047 70.0038412 2 69 C1.66666667 66.66666667 1.33333333 64.33333333 1 62 C0.67 61.67 0.34 61.34 0 61 C-1.24817639 51.4570176 -1.16020525 41.79398984 -1.125 32.1875 C-1.12411377 31.48810303 -1.12322754 30.78870605 -1.12231445 30.06811523 C-1.1073573 20.01806011 -0.92236337 10.01423084 0 0 Z " fill="#3D2911" transform="translate(357,392)"/>
<path d="M0 0 C3.54705829 3.54705829 4.24659971 6.62235716 4.5625 11.5625 C4.76883806 14.66599292 5.01136396 17.03409187 6 20 C6.23658789 24.18343064 6.18519179 28.37309977 6.1875 32.5625 C6.19974609 33.70525391 6.21199219 34.84800781 6.22460938 36.02539062 C6.23651505 42.96640007 5.57196964 49.25347079 4 56 C3.49488618 59.0762835 3.02352818 62.15515526 2.5625 65.23828125 C1.99788729 68.01037282 1.13099219 70.41285537 0 73 C-0.66 73 -1.32 73 -2 73 C-1.34235442 68.09927573 -0.49420236 63.2842365 0.5 58.4375 C1.00720622 55.9597976 1.50760865 53.48068904 2 51 C2.28617188 49.62714844 2.28617188 49.62714844 2.578125 48.2265625 C4.67699942 32.17405998 2.7712392 15.83565259 0 0 Z " fill="#E9993E" transform="translate(609,435)"/>
<path d="M0 0 C0.66 0 1.32 0 2 0 C2.06058594 0.92683594 2.12117187 1.85367187 2.18359375 2.80859375 C2.26738281 4.00613281 2.35117187 5.20367187 2.4375 6.4375 C2.51871094 7.63246094 2.59992187 8.82742188 2.68359375 10.05859375 C2.67656114 12.88570244 2.67656114 12.88570244 4 14 C4.09964888 15.818122 4.13080495 17.64008784 4.1328125 19.4609375 C4.13410156 20.57210938 4.13539063 21.68328125 4.13671875 22.828125 C4.13285156 23.99859375 4.12898437 25.1690625 4.125 26.375 C4.12886719 27.53773438 4.13273438 28.70046875 4.13671875 29.8984375 C4.13542969 31.0121875 4.13414062 32.1259375 4.1328125 33.2734375 C4.13168457 34.29872559 4.13055664 35.32401367 4.12939453 36.38037109 C4 39 4 39 3 42 C2.69116784 45.64593517 2.49041441 49.29240545 2.28125 52.9453125 C2 56 2 56 1 57 C0.84041899 58.35052814 0.72271724 59.70609162 0.625 61.0625 C0.15368102 65.77568979 -1.21254405 69.64991589 -3 74 C-3.67735217 75.99640639 -4.34838935 77.99504414 -5 80 C-5.66 80 -6.32 80 -7 80 C-6.82984375 79.49855469 -6.6596875 78.99710937 -6.484375 78.48046875 C-4.59487486 72.58080607 -3.17581609 66.61368162 -1.875 60.5625 C-1.70452148 59.78865967 -1.53404297 59.01481934 -1.35839844 58.2175293 C0.80510917 47.91721153 1.16839184 37.68677547 1.125 27.1875 C1.12306641 26.05199707 1.12113281 24.91649414 1.11914062 23.74658203 C1.07819178 15.7922694 0.80619237 7.91796078 0 0 Z " fill="#292612" transform="translate(685,382)"/>
<path d="M0 0 C1.0970054 1.0970054 2.19364122 2.19438151 3.2890625 3.29296875 C4.63305957 4.63389733 5.98333393 5.96853459 7.3359375 7.30078125 C8.56183594 8.51314453 8.56183594 8.51314453 9.8125 9.75 C10.60269531 10.52859375 11.39289063 11.3071875 12.20703125 12.109375 C14 14 14 14 14 15 C12.02 15 10.04 15 8 15 C8 16.65 8 18.3 8 20 C8.66 20 9.32 20 10 20 C10.37125 20.94875 10.7425 21.8975 11.125 22.875 C12.90071935 27.06672212 15.26462585 30.82845129 17.6953125 34.66796875 C18.90175376 36.82439219 19.54522806 38.58749029 20 41 C15.92611237 37.45298929 13.62031871 33.23715097 11.0625 28.5625 C10.62301025 27.76424805 10.18352051 26.96599609 9.73071289 26.14355469 C5.22289883 17.80163288 1.35823998 9.46567242 0 0 Z " fill="#E4883E" transform="translate(347,502)"/>
<path d="M0 0 C0.66 0 1.32 0 2 0 C1.608125 1.2375 1.21625 2.475 0.8125 3.75 C0.544375 4.67941406 0.27625 5.60882813 0 6.56640625 C-0.52320448 8.3628779 -1.05175198 10.15841059 -1.6328125 11.93701172 C-8.25110441 32.29111204 -8.6330453 56.31197054 -3 77 C-3.99 76.67 -4.98 76.34 -6 76 C-8.10907983 69.86150231 -8.28089526 64.07137846 -8.23046875 57.62890625 C-8.23001053 56.66597153 -8.22955231 55.7030368 -8.2290802 54.71092224 C-8.2260765 52.6914648 -8.2182472 50.67200927 -8.20581055 48.65258789 C-8.18741175 45.54760642 -8.1853021 42.44292124 -8.18554688 39.33789062 C-8.18063636 37.37239323 -8.17481008 35.40689787 -8.16796875 33.44140625 C-8.16685593 32.50921768 -8.1657431 31.57702911 -8.16459656 30.61659241 C-8.15821671 29.76157639 -8.15183685 28.90656036 -8.14526367 28.02563477 C-8.14145187 27.27032974 -8.13764008 26.51502472 -8.13371277 25.73683167 C-8 24 -8 24 -7 23 C-6.95907063 20.66702567 -6.95758277 18.33294775 -7 16 C-6.34 15.67 -5.68 15.34 -5 15 C-4.49782491 13.35956139 -4.00488426 11.71533372 -3.57421875 10.0546875 C-2.61318622 6.61589084 -1.28502989 3.32939562 0 0 Z " fill="#E2A742" transform="translate(431,292)"/>
<path d="M0 0 C0.33 0 0.66 0 1 0 C3.32121183 10.11601212 3.27471953 20.08633697 3.20581055 30.41015625 C3.18744904 33.25790305 3.18530222 36.10532486 3.18554688 38.953125 C3.18063362 40.78646111 3.17480614 42.61979505 3.16796875 44.453125 C3.16685593 45.29288879 3.1657431 46.13265259 3.16459656 46.99786377 C3.12410481 52.08505937 2.68940074 56.96017292 2 62 C1.91351593 64.45716491 1.86966664 66.91631937 1.875 69.375 C1.87113281 71.18097656 1.87113281 71.18097656 1.8671875 73.0234375 C1.79453154 75.92814635 1.79453154 75.92814635 3 78 C1.02 77.34 -0.96 76.68 -3 76 C-2.68160156 75.03578125 -2.36320313 74.0715625 -2.03515625 73.078125 C-0.77141523 68.65558815 -0.5912872 64.32610691 -0.4375 59.75 C-0.12058024 51.36174071 -0.12058024 51.36174071 1 48 C1.0967025 45.4722331 1.13999312 42.97292707 1.1328125 40.4453125 C1.13376923 39.70675018 1.13472595 38.96818787 1.13571167 38.20724487 C1.13639174 36.6454866 1.13454948 35.08372549 1.13037109 33.52197266 C1.1250356 31.14088522 1.13031402 28.75998771 1.13671875 26.37890625 C1.13605764 24.85937459 1.1347758 23.33984304 1.1328125 21.8203125 C1.13483673 21.11182159 1.13686096 20.40333069 1.13894653 19.67337036 C1.1215926 15.98119575 0.82687932 12.59585038 0 9 C-0.06371368 7.39696373 -0.08644214 5.79162328 -0.0625 4.1875 C-0.05347656 3.39730469 -0.04445313 2.60710937 -0.03515625 1.79296875 C-0.02355469 1.20128906 -0.01195312 0.60960937 0 0 Z " fill="#E5BE4B" transform="translate(589,282)"/>
<path d="M0 0 C1.25159912 0.00523682 2.50319824 0.01047363 3.79272461 0.01586914 C4.78942421 0.01799156 4.78942421 0.01799156 5.80625916 0.02015686 C7.93590735 0.02577021 10.06545175 0.03832485 12.19506836 0.05102539 C13.63582205 0.05603868 15.07657739 0.06060188 16.51733398 0.06469727 C20.05577938 0.07574394 23.59416375 0.09301747 27.13256836 0.11352539 C27.46256836 1.10352539 27.79256836 2.09352539 28.13256836 3.11352539 C17.90256836 2.78352539 7.67256836 2.45352539 -2.86743164 2.11352539 C-2.86743164 18.94352539 -2.86743164 35.77352539 -2.86743164 53.11352539 C-3.19743164 53.11352539 -3.52743164 53.11352539 -3.86743164 53.11352539 C-3.89269857 45.72624437 -3.91026324 38.33897441 -3.92236328 30.95166016 C-3.92740527 28.43635644 -3.93423867 25.92105567 -3.94287109 23.40576172 C-3.95494258 19.79922764 -3.96066113 16.19273217 -3.96508789 12.58618164 C-3.97024918 11.4539064 -3.97541046 10.32163116 -3.98072815 9.15504456 C-3.98080368 8.11404099 -3.98087921 7.07303741 -3.98095703 6.00048828 C-3.98317764 5.07893448 -3.98539825 4.15738068 -3.98768616 3.207901 C-3.79926624 -0.07365628 -3.33591973 0.13207345 0 0 Z " fill="#362B0B" transform="translate(432.867431640625,814.886474609375)"/>
<path d="M0 0 C0.33 0 0.66 0 1 0 C0.97905273 0.72775635 0.95810547 1.4555127 0.93652344 2.20532227 C0.39810916 23.91738906 1.67694953 44.03871566 9.6328125 64.40625 C10.96943934 67.91966912 12.01924994 71.37589502 13 75 C8.8414941 71.84527139 8.01607168 68.35237535 6.7265625 63.52734375 C6.08424367 61.29304117 5.30952842 59.34189607 4.3125 57.25 C2.95454367 53.88744146 2.7376213 51.58584223 3 48 C2.34 48 1.68 48 1 48 C0.93941406 47.14535156 0.87882812 46.29070312 0.81640625 45.41015625 C0.73261719 44.30542969 0.64882813 43.20070313 0.5625 42.0625 C0.48128906 40.96035156 0.40007812 39.85820312 0.31640625 38.72265625 C0.29581916 36.08890097 0.29581916 36.08890097 -1 35 C-1.10001828 33.09455748 -1.13081048 31.18540844 -1.1328125 29.27734375 C-1.13410156 28.09849609 -1.13539063 26.91964844 -1.13671875 25.70507812 C-1.13285156 24.46177734 -1.12898438 23.21847656 -1.125 21.9375 C-1.12886719 20.72126953 -1.13273437 19.50503906 -1.13671875 18.25195312 C-1.13001445 12.0739388 -0.96047106 6.10585175 0 0 Z " fill="#D27B40" transform="translate(412,456)"/>
<path d="M0 0 C3.96293074 3.63540383 6.13897177 8.26227714 8.6875 12.9375 C9.21843262 13.91082275 9.74936523 14.88414551 10.29638672 15.88696289 C16.44463903 27.39005462 21.60774548 39.38820225 25 52 C24.01 52.495 24.01 52.495 23 53 C22.76925781 52.27296875 22.53851562 51.5459375 22.30078125 50.796875 C16.89793069 31.28903473 16.89793069 31.28903473 6.4375 14.625 C4.37721065 12.29597725 4.3360683 10.02461466 4 7 C3.34 7 2.68 7 2 7 C2 6.01 2 5.02 2 4 C1.34 4 0.68 4 0 4 C0 2.68 0 1.36 0 0 Z " fill="#D8B347" transform="translate(559,206)"/>
<path d="M0 0 C0.66 0 1.32 0 2 0 C2 4.62 2 9.24 2 14 C4.64624284 13.85978195 7.29184578 13.71310224 9.9375 13.5625 C10.69224609 13.52318359 11.44699219 13.48386719 12.22460938 13.44335938 C15.91944187 13.55961976 15.91944187 13.55961976 19 12 C19.33856828 6.67326964 19.33856828 6.67326964 17 2 C16.01 1.34 15.02 0.68 14 0 C16.88949684 0.31237804 18.58633099 0.64338879 20.8125 2.5625 C22.59573144 6.22281717 22.32716252 8.94318473 22 13 C18.80065633 16.19934367 15.65666618 15.98298792 11.23046875 16.09765625 C9.88277336 16.09201431 8.53510455 16.07913346 7.1875 16.0625 C4.815625 16.041875 2.44375 16.02125 0 16 C0 10.72 0 5.44 0 0 Z " fill="#D5A23E" transform="translate(441,828)"/>
<path d="M0 0 C3.53848316 3.41750938 6.20715149 6.96588548 9 11 C6.525 10.01 6.525 10.01 4 9 C4.01047363 9.91700684 4.02094727 10.83401367 4.03173828 11.77880859 C4.06610894 15.22675156 4.09103794 18.67450874 4.10986328 22.12255859 C4.11983431 23.60631204 4.13341605 25.09004629 4.15087891 26.57373047 C4.35773938 44.61926475 4.35773938 44.61926475 2 51 C1.01 51.495 1.01 51.495 0 52 C0.144375 51.05382812 0.28875 50.10765625 0.4375 49.1328125 C2.83138591 32.50765825 2.19958135 16.61469488 0 0 Z " fill="#DAB54D" transform="translate(621,270)"/>
<path d="M0 0 C2.52475462 2.52475462 3.04307871 4.73497997 4.125 8.125 C4.47820313 9.22070312 4.83140625 10.31640625 5.1953125 11.4453125 C5.46085938 12.28835938 5.72640625 13.13140625 6 14 C2.04 14 -1.92 14 -6 14 C-5.19074658 11.85294019 -4.37750887 9.7073817 -3.5625 7.5625 C-3.11003906 6.36753906 -2.65757812 5.17257812 -2.19140625 3.94140625 C-1 1 -1 1 0 0 Z " fill="#352A0A" transform="translate(516,834)"/>
<path d="M0 0 C0.33 0 0.66 0 1 0 C4.15253132 19.08407352 4.92381285 38.88842778 -3 57 C-4.05702173 53.82893481 -3.97492531 53.07370251 -3.125 50 C-2.85042969 48.9790625 -2.85042969 48.9790625 -2.5703125 47.9375 C-2.08263119 46.28071965 -1.54614597 44.6384379 -1 43 C2.06823259 28.20716628 2.06823259 28.20716628 0 14 C-0.07116382 11.62597499 -0.08409085 9.24999323 -0.0625 6.875 C-0.05347656 5.59367187 -0.04445313 4.31234375 -0.03515625 2.9921875 C-0.02355469 2.00476563 -0.01195312 1.01734375 0 0 Z " fill="#303112" transform="translate(621,273)"/>
<path d="M0 0 C0.33 0 0.66 0 1 0 C1.31620422 6.79839071 0.12676382 13.30983984 -1 20 C-1.66 20 -2.32 20 -3 20 C-2.88832626 24.0838088 -2.75814654 28.16683936 -2.625 32.25 C-2.5940625 33.38953125 -2.563125 34.5290625 -2.53125 35.703125 C-2.27256059 43.29134778 -1.39021027 50.54186377 0 58 C0.35766693 60.33079615 0.6813854 62.66349291 1 65 C-4.97934392 56.03098411 -4.51506044 43.06056215 -4.4375 32.6875 C-4.43645264 32.01588837 -4.43540527 31.34427673 -4.43432617 30.65231323 C-4.40013275 20.00311997 -3.36995087 10.12489704 0 0 Z " fill="#2A230A" transform="translate(428,305)"/>
<path d="M0 0 C1.25490234 0.2784375 1.25490234 0.2784375 2.53515625 0.5625 C1.21515625 1.8825 -0.10484375 3.2025 -1.46484375 4.5625 C-1.46484375 3.9025 -1.46484375 3.2425 -1.46484375 2.5625 C-3.09087245 2.62250106 -4.71585924 2.7112885 -6.33984375 2.8125 C-7.24476563 2.85890625 -8.1496875 2.9053125 -9.08203125 2.953125 C-11.59254234 3.29711117 -11.59254234 3.29711117 -12.5390625 5.359375 C-12.99732422 6.44992187 -12.99732422 6.44992187 -13.46484375 7.5625 C-14.73152081 8.93943982 -16.04824155 10.27143794 -17.40234375 11.5625 C-20.04093011 14.0876518 -22.34458512 16.58483271 -24.46484375 19.5625 C-25.12484375 18.5725 -25.78484375 17.5825 -26.46484375 16.5625 C-12.24836556 -1.51917712 -12.24836556 -1.51917712 0 0 Z " fill="#E6AD33" transform="translate(682.46484375,815.4375)"/>
<path d="M0 0 C0.66 0 1.32 0 2 0 C0.60043128 4.74298288 -0.81251893 9.47069239 -2.39453125 14.15625 C-6.33241856 25.96232934 -8.92525156 37.73457541 -11 50 C-11.33 50 -11.66 50 -12 50 C-12.02686553 48.02090602 -12.04633375 46.04171029 -12.0625 44.0625 C-12.07410156 42.96035156 -12.08570313 41.85820312 -12.09765625 40.72265625 C-12 38 -12 38 -11 37 C-10.30107808 34.00462035 -9.64411667 31.00727196 -9 28 C-8.50553677 25.76959866 -8.00531243 23.54046844 -7.5 21.3125 C-7.2628125 20.25675781 -7.025625 19.20101563 -6.78125 18.11328125 C-6.00288329 15.01148993 -5.05023465 12.01942463 -4 9 C-3.34 9 -2.68 9 -2 9 C-2.061875 7.88625 -2.061875 7.88625 -2.125 6.75 C-1.99601866 3.91241048 -1.42948778 2.41226062 0 0 Z " fill="#D77E44" transform="translate(525,462)"/>
<path d="M0 0 C0.556875 0.763125 1.11375 1.52625 1.6875 2.3125 C3.77514589 5.04424916 3.77514589 5.04424916 6.3125 6.3125 C9.65140586 8.40902228 11.76386854 10.99872973 14.28515625 14 C15.76762263 15.72898129 17.28986607 17.30671388 18.9375 18.875 C21 21 21 21 21 23 C21.639375 23.268125 22.27875 23.53625 22.9375 23.8125 C25 25 25 25 26 28 C25.34 28.33 24.68 28.66 24 29 C23.5875 28.5153125 23.175 28.030625 22.75 27.53125 C18.86000568 23.01607803 14.81974532 18.77516537 10.50390625 14.6640625 C9 13 9 13 9 11 C8.41734375 10.74476563 7.8346875 10.48953125 7.234375 10.2265625 C4.78611777 8.88258913 3.18256752 7.38189704 1.25 5.375 C0.63640625 4.74335938 0.0228125 4.11171875 -0.609375 3.4609375 C-1.06828125 2.97882813 -1.5271875 2.49671875 -2 2 C-1.34 1.34 -0.68 0.68 0 0 Z " fill="#D57A3E" transform="translate(447,440)"/>
<path d="M0 0 C1.04940487 3.14821462 0.98606526 3.9349491 0.22265625 7.01171875 C-0.05288086 8.14770508 -0.05288086 8.14770508 -0.33398438 9.30664062 C-0.53314453 10.09232422 -0.73230469 10.87800781 -0.9375 11.6875 C-1.13279297 12.48478516 -1.32808594 13.28207031 -1.52929688 14.10351562 C-2.01228382 16.07080389 -2.5051963 18.03565054 -3 20 C-3.33 20 -3.66 20 -4 20 C-4.33 17.69 -4.66 15.38 -5 13 C-5.86625 14.0209375 -5.86625 14.0209375 -6.75 15.0625 C-7.86375 16.0215625 -7.86375 16.0215625 -9 17 C-11.140625 16.62109375 -11.140625 16.62109375 -13 16 C-12.56429687 15.59910156 -12.12859375 15.19820313 -11.6796875 14.78515625 C-6.97755974 10.29676157 -3.41638401 5.51877416 0 0 Z " fill="#E18136" transform="translate(697,484)"/>
<path d="M0 0 C3.92300272 1.82504909 6.73787272 4.18270826 10 7 C7 7 7 7 4 5 C2.68 5 1.36 5 0 5 C-2.65329196 10.76013811 -4.17898328 16.39385236 -5.54882812 22.56640625 C-5.97524412 24.39194621 -6.48138161 26.19848349 -7 28 C-7.66 28.33 -8.32 28.66 -9 29 C-8.30033395 18.50500922 -4.96617298 9.22289267 0 0 Z " fill="#3A2C12" transform="translate(423,423)"/>
<path d="M0 0 C0.33 0 0.66 0 1 0 C1.31937166 13.34263828 0.74029488 26.09291684 -3 39 C-3.16604985 40.34974805 -3.30004402 41.70464361 -3.375 43.0625 C-4.09286331 47.58503884 -5.25132735 49.45332562 -8 53 C-9 51 -9 51 -8.328125 48.453125 C-7.97234375 47.39609375 -7.6165625 46.3390625 -7.25 45.25 C-2.51333979 30.23968714 -1.07375319 15.6417116 0 0 Z " fill="#C89845" transform="translate(521,172)"/>
<path d="M0 0 C7.04287168 2.9077169 14.05659307 5.8614398 21 9 C21 10.65 21 12.3 21 14 C17.8936005 15.84398144 15.94718528 16.2039901 12.375 15.75 C11.21097656 15.61851562 11.21097656 15.61851562 10.0234375 15.484375 C8 15 8 15 6 13 C10.62 13 15.24 13 20 13 C19.67 12.01 19.34 11.02 19 10 C16.03 9.505 16.03 9.505 13 9 C13 8.34 13 7.68 13 7 C9.7 6.34 6.4 5.68 3 5 C3 4.34 3 3.68 3 3 C2.01 2.67 1.02 2.34 0 2 C0 1.34 0 0.68 0 0 Z " fill="#31290D" transform="translate(371,842)"/>
<path d="M0 0 C4.62 0 9.24 0 14 0 C14.33 5.61 14.66 11.22 15 17 C16.32 17.33 17.64 17.66 19 18 C17.37660195 19.70884005 15.70680947 21.37446717 14 23 C13.34 23 12.68 23 12 23 C12 15.74 12 8.48 12 1 C8.04 1 4.08 1 0 1 C0 0.67 0 0.34 0 0 Z " fill="#4A3C10" transform="translate(637,816)"/>
<path d="M0 0 C0.33 0 0.66 0 1 0 C1.02464638 5.82071622 1.0428343 11.64140234 1.05493164 17.4621582 C1.05997267 19.44393441 1.06680538 21.42570689 1.07543945 23.4074707 C1.08751515 26.24952109 1.09323045 29.09152247 1.09765625 31.93359375 C1.10281754 32.82525742 1.10797882 33.71692108 1.11329651 34.63560486 C1.11349177 36.75740601 1.0621003 38.8791078 1 41 C0.505 41.495 0.505 41.495 0 42 C-0.07226502 43.85287502 -0.0838122 45.70833878 -0.0625 47.5625 C-0.05347656 48.57441406 -0.04445313 49.58632813 -0.03515625 50.62890625 C-0.02355469 51.41136719 -0.01195312 52.19382812 0 53 C-0.66 52.67 -1.32 52.34 -2 52 C-2.02738672 49.83340626 -2.04656832 47.66670825 -2.0625 45.5 C-2.07410156 44.2934375 -2.08570313 43.086875 -2.09765625 41.84375 C-2.01663091 38.65459262 -1.6877363 35.64303035 -1.25610352 32.49023438 C-0.64225254 26.521426 -0.60999647 20.49583639 -0.4375 14.5 C-0.39422263 13.09113527 -0.35060569 11.68228093 -0.30664062 10.2734375 C-0.20109429 6.8490454 -0.09898202 3.42458708 0 0 Z " fill="#403C12" transform="translate(592,306)"/>
<path d="M0 0 C1.13411953 3.40235858 0.83070379 4.64584266 0.0390625 8.078125 C-0.29738281 9.57279297 -0.29738281 9.57279297 -0.640625 11.09765625 C-0.88296875 12.13792969 -1.1253125 13.17820312 -1.375 14.25 C-3.53449096 23.68294127 -5.0871864 32.76759545 -5.5625 42.4375 C-5.60568359 43.26443359 -5.64886719 44.09136719 -5.69335938 44.94335938 C-5.79838033 46.96209549 -5.89958559 48.98102951 -6 51 C-6.33 51 -6.66 51 -7 51 C-7.53885954 20.48396961 -7.53885954 20.48396961 -2 6 C-1.608125 4.824375 -1.21625 3.64875 -0.8125 2.4375 C-0.4103125 1.2309375 -0.4103125 1.2309375 0 0 Z " fill="#382C10" transform="translate(450,346)"/>
<path d="M0 0 C0.99101043 3.10563128 0.95875336 5.05235896 0.125 8.1875 C-1.0058719 12.78739787 -1.55106675 17.28620087 -2 22 C-2.66 22 -3.32 22 -4 22 C-3.979375 23.2375 -3.95875 24.475 -3.9375 25.75 C-3.90122946 27.92623216 -3.93936513 29.76598351 -4.48632812 31.87695312 C-4.99903566 33.99601431 -5.2011026 35.93507751 -5.31640625 38.109375 C-5.35830078 38.86347656 -5.40019531 39.61757813 -5.44335938 40.39453125 C-5.48267578 41.17183594 -5.52199219 41.94914062 -5.5625 42.75 C-5.60568359 43.54277344 -5.64886719 44.33554687 -5.69335938 45.15234375 C-5.79902991 47.10137815 -5.89997966 49.05066748 -6 51 C-6.33 51 -6.66 51 -7 51 C-7.56345968 33.15711017 -4.55579554 17.18251822 0 0 Z " fill="#D29941" transform="translate(451,346)"/>
<path d="M0 0 C1.32 0.33 2.64 0.66 4 1 C-1.75954153 4.67970709 -5.97803835 5.14570936 -12.75 5.0625 C-13.44738281 5.05798828 -14.14476562 5.05347656 -14.86328125 5.04882812 C-16.57555803 5.0371002 -18.28779033 5.01916653 -20 5 C-20 9.62 -20 14.24 -20 19 C-20.33 19 -20.66 19 -21 19 C-21 13.72 -21 8.44 -21 3 C-10.605 2.505 -10.605 2.505 0 2 C0 1.34 0 0.68 0 0 Z " fill="#C8973B" transform="translate(463,849)"/>
<path d="M0 0 C0.33 0 0.66 0 1 0 C1.02684679 2.64590014 1.04676357 5.29153096 1.0625 7.9375 C1.07087891 8.69224609 1.07925781 9.44699219 1.08789062 10.22460938 C1.09652441 12.14994313 1.05224333 14.07535581 1 16 C0.67 16.33 0.34 16.66 0 17 C-0.15958101 18.35052814 -0.27728276 19.70609162 -0.375 21.0625 C-0.84631898 25.77568979 -2.21254405 29.64991589 -4 34 C-4.67735217 35.99640639 -5.34838935 37.99504414 -6 40 C-6.66 40 -7.32 40 -8 40 C-7.82984375 39.49855469 -7.6596875 38.99710937 -7.484375 38.48046875 C-3.52808665 26.12758971 -0.58327293 12.97782276 0 0 Z " fill="#352D11" transform="translate(686,422)"/>
<path d="M0 0 C1.18065177 4.03731816 0.73022119 7.5220719 0.125 11.625 C0.03347656 12.305625 -0.05804687 12.98625 -0.15234375 13.6875 C-0.85789406 18.71578812 -0.85789406 18.71578812 -2 21 C-2.52574672 24.56535798 -2.96217116 28.13797912 -3.40234375 31.71484375 C-4 35 -4 35 -6 38 C-5.74861331 25.01930522 -2.82261257 12.61855558 0 0 Z " fill="#3B2716" transform="translate(518,488)"/>
<path d="M0 0 C0 0.66 0 1.32 0 2 C-0.99 2.495 -0.99 2.495 -2 3 C0.31 3.33 2.62 3.66 5 4 C1.05688666 6.52274456 -3.20820789 6.66554839 -7.75 7.125 C-8.54277344 7.21136719 -9.33554687 7.29773438 -10.15234375 7.38671875 C-12.10083141 7.59800054 -14.05032976 7.79992467 -16 8 C-13.10414095 5.70351643 -10.1827969 3.95652443 -6.875 2.3125 C-5.57175781 1.65701172 -5.57175781 1.65701172 -4.2421875 0.98828125 C-2 0 -2 0 0 0 Z " fill="#CA733C" transform="translate(564,609)"/>
<path d="M0 0 C4.29 0.33 8.58 0.66 13 1 C13 1.66 13 2.32 13 3 C15.64 3 18.28 3 21 3 C21 3.66 21 4.32 21 5 C21.66 4.67 22.32 4.34 23 4 C22.67 2.68 22.34 1.36 22 0 C23.70884005 1.62339805 25.37446717 3.29319053 27 5 C27 5.66 27 6.32 27 7 C8.65957447 4 8.65957447 4 0 1 C0 0.67 0 0.34 0 0 Z " fill="#D47F4A" transform="translate(456,608)"/>
<path d="M0 0 C0.66 0.33 1.32 0.66 2 1 C1.39671875 2.05058594 0.7934375 3.10117187 0.171875 4.18359375 C-3.90521857 11.32892778 -7.86901231 18.37672563 -11 26 C-11.33 26 -11.66 26 -12 26 C-12.68041782 20.72676192 -10.24786337 16.60611289 -8 12 C-7.34 12 -6.68 12 -6 12 C-5.7834375 10.824375 -5.7834375 10.824375 -5.5625 9.625 C-5 7 -5 7 -4 5 C-3.34 5 -2.68 5 -2 5 C-2.33 3.68 -2.66 2.36 -3 1 C-2.01 0.67 -1.02 0.34 0 0 Z " fill="#E0903E" transform="translate(539,436)"/>
<path d="M0 0 C0.33 0 0.66 0 1 0 C1.01458252 0.61294922 1.02916504 1.22589844 1.04418945 1.85742188 C1.37938549 14.52617383 2.14502494 26.62844141 5 39 C4.01 38.67 3.02 38.34 2 38 C-0.87096322 30.47085143 -0.223773 22.43538525 -0.125 14.5 C-0.11495069 13.09115219 -0.10582829 11.68229745 -0.09765625 10.2734375 C-0.07419969 6.8487795 -0.04137384 3.42448061 0 0 Z " fill="#C7953C" transform="translate(423,330)"/>
<path d="M0 0 C0.66 0 1.32 0 2 0 C2 0.66 2 1.32 2 2 C2.99 2.33 3.98 2.66 5 3 C5.33 5.31 5.66 7.62 6 10 C1.49543857 13.4874024 -2.53331065 13.60301637 -8 13 C-11.0625 12 -11.0625 12 -13 11 C-13 10.34 -13 9.68 -13 9 C-12.29488281 9.16371094 -11.58976562 9.32742188 -10.86328125 9.49609375 C-7.90341312 10.01699824 -5.18938727 10.09866732 -2.1875 10.0625 C-1.21167969 10.05347656 -0.23585938 10.04445313 0.76953125 10.03515625 C1.50558594 10.02355469 2.24164063 10.01195312 3 10 C3.17379824 5.69125204 2.45719398 3.58340788 0 0 Z " fill="#CB7B42" transform="translate(393,522)"/>
<path d="M0 0 C1.31538327 4.15771494 0.34433068 6.8879297 -1 11 C-1.66 11 -2.32 11 -3 11 C-3.566616 13.25042768 -4.11796069 15.50239886 -4.6484375 17.76171875 C-5.00808594 19.20998047 -5.00808594 19.20998047 -5.375 20.6875 C-5.72691406 22.14736328 -5.72691406 22.14736328 -6.0859375 23.63671875 C-6.38757813 24.41660156 -6.68921875 25.19648438 -7 26 C-7.99 26.33 -8.98 26.66 -10 27 C-7.87527599 17.44885971 -4.05354794 8.85117181 0 0 Z " fill="#C9923D" transform="translate(462,318)"/>
<path d="M0 0 C4.05679377 -0.02477373 8.11355806 -0.04289493 12.17041016 -0.05493164 C13.54964973 -0.05995118 14.92888402 -0.06676819 16.30810547 -0.07543945 C18.29392183 -0.0876092 20.27977749 -0.09271633 22.265625 -0.09765625 C23.45961914 -0.10289307 24.65361328 -0.10812988 25.88378906 -0.11352539 C28.48326425 -0.01882499 30.5274154 0.28337555 33 1 C33.66 1 34.32 1 35 1 C35.66 2.65 36.32 4.3 37 6 C36.36473389 5.71995117 35.72946777 5.43990234 35.07495117 5.15136719 C27.40247638 2.03526377 20.5415422 1.35165016 12.3125 1.25 C11.12205078 1.22035156 9.93160156 1.19070313 8.70507812 1.16015625 C5.80332062 1.09023438 2.90233019 1.03715598 0 1 C0 0.67 0 0.34 0 0 Z " fill="#2D2912" transform="translate(566,815)"/>
<path d="M0 0 C0.33 0 0.66 0 1 0 C1.34009604 9.59826595 0.85689293 19.08701214 -3 28 C-3.66 28 -4.32 28 -5 28 C-4.34235442 23.09927573 -3.49420236 18.2842365 -2.5 13.4375 C-1.58501973 8.9678214 -0.72192826 4.50511004 0 0 Z " fill="#D27A3E" transform="translate(612,480)"/>
<path d="M0 0 C0.33 0.66 0.66 1.32 1 2 C-1.17309474 6.75364474 -4.94031829 10.75225463 -9 14 C-11.22265625 14.703125 -11.22265625 14.703125 -13 15 C-9.09489511 9.49280079 -4.90282356 4.64172645 0 0 Z " fill="#DA9D33" transform="translate(405,306)"/>
<path d="M0 0 C4.07846655 2.09434769 5.99779404 3.87441711 8 8 C8.3984375 11.15625 8.3984375 11.15625 8.375 14.5 C8.38273438 15.6034375 8.39046875 16.706875 8.3984375 17.84375 C7.96483022 21.27859984 6.97785034 23.19542914 5 26 C4.34 24.68 3.68 23.36 3 22 C3.99 21.34 4.98 20.68 6 20 C6.56573452 13.21118575 5.23860128 8.01454524 2 2 C1.34 2 0.68 2 0 2 C0 1.34 0 0.68 0 0 Z " fill="#E4B247" transform="translate(601,820)"/>
<path d="M0 0 C8.0794702 0.66225166 8.0794702 0.66225166 11 4 C13.60611077 4.72197162 13.60611077 4.72197162 16 5 C16 5.66 16 6.32 16 7 C17.65 7 19.3 7 21 7 C21.33 7.99 21.66 8.98 22 10 C14.10501383 8.00878667 7.17773362 4.81085857 0 1 C0 0.67 0 0.34 0 0 Z " fill="#D47B40" transform="translate(427,596)"/>
<path d="M0 0 C6.01451379 4.55152395 6.01451379 4.55152395 8 8 C8.25 10.6875 8.25 10.6875 8 13 C6.27026886 14.72973114 3.97483037 14.17208117 1.625 14.1875 C0.64789063 14.20167969 -0.32921875 14.21585938 -1.3359375 14.23046875 C-4 14 -4 14 -7 12 C-2.71 12.33 1.58 12.66 6 13 C4.27858198 7.83574594 3.26586998 5.91904397 0 2 C0 1.34 0 0.68 0 0 Z " fill="#362312" transform="translate(389,519)"/>
<path d="M0 0 C0.66 0 1.32 0 2 0 C3.4453125 1.46875 3.4453125 1.46875 5.125 3.5 C8.32115182 7.27909774 11.71549448 10.73143286 15.30078125 14.140625 C17.00281712 16.00308264 17.99673994 17.69810382 19 20 C17.1875 19.8125 17.1875 19.8125 15 19 C14.5875 18.28585937 14.175 17.57171875 13.75 16.8359375 C11.55224161 13.27439154 8.82700618 10.68497997 5.8125 7.8125 C3.82054955 5.91245038 1.90074501 3.99504554 0 2 C0 1.34 0 0.68 0 0 Z " fill="#352212" transform="translate(454,451)"/>
<path d="M0 0 C5.28 0 10.56 0 16 0 C16 0.33 16 0.66 16 1 C14.83984375 1.03867187 14.83984375 1.03867187 13.65625 1.078125 C5.49825033 1.52237251 -0.35587395 2.72028656 -6.5 8.25 C-6.995 8.8275 -7.49 9.405 -8 10 C-6.25 4.25 -6.25 4.25 -4 2 C-2.68 2 -1.36 2 0 2 C0 1.34 0 0.68 0 0 Z " fill="#2C280E" transform="translate(376,815)"/>
<path d="M0 0 C1.99954746 -0.04254356 4.00041636 -0.04080783 6 0 C6.33 0.33 6.66 0.66 7 1 C9.69235776 1.23678716 12.36498156 1.42198025 15.0625 1.5625 C16.20041992 1.62727539 16.20041992 1.62727539 17.36132812 1.69335938 C19.24065438 1.79973633 21.12030244 1.90039934 23 2 C17.75223435 5.01416288 12.12475893 4.79614624 6.34765625 3.32421875 C4.20193236 2.60897745 2.09547589 1.85033804 0 1 C0 0.67 0 0.34 0 0 Z " fill="#CFA548" transform="translate(371,865)"/>
<path d="M0 0 C2.18975773 3.28463659 2.99806563 6.20696275 4 10 C-0.29 10 -4.58 10 -9 10 C-9.66 8.02 -10.32 6.04 -11 4 C-10.01 4.33 -9.02 4.66 -8 5 C-8 6.32 -8 7.64 -8 9 C-4.7 9 -1.4 9 2 9 C1.34 8.01 0.68 7.02 0 6 C-0.125 2.8125 -0.125 2.8125 0 0 Z " fill="#DAA94C" transform="translate(539,858)"/>
<path d="M0 0 C2.56864728 1.28432364 2.946539 2.36634751 4 5 C4 6.32 4 7.64 4 9 C2.02 9 0.04 9 -2 9 C-1.125 2.25 -1.125 2.25 0 0 Z " fill="#162323" transform="translate(515,838)"/>
<path d="M0 0 C4.29 0 8.58 0 13 0 C12.67 0.66 12.34 1.32 12 2 C8.37 1.67 4.74 1.34 1 1 C0.566875 3.1346875 0.566875 3.1346875 0.125 5.3125 C-0.5380901 8.58058692 -1.09681116 10.14521674 -3 13 C-3.66 13 -4.32 13 -5 13 C-4.54554036 11.58208592 -4.08625056 10.16571954 -3.625 8.75 C-3.24214844 7.56664062 -3.24214844 7.56664062 -2.8515625 6.359375 C-2 4 -2 4 0 0 Z " fill="#DCAD49" transform="translate(510,817)"/>
<path d="M0 0 C1.87945313 0.08701172 1.87945313 0.08701172 3.796875 0.17578125 C5.06015625 0.22089844 6.3234375 0.26601563 7.625 0.3125 C8.58921875 0.37050781 9.5534375 0.42851563 10.546875 0.48828125 C9.226875 1.80828125 7.906875 3.12828125 6.546875 4.48828125 C6.546875 3.82828125 6.546875 3.16828125 6.546875 2.48828125 C4.96277506 2.60315873 3.37958537 2.73062633 1.796875 2.86328125 C0.91515625 2.93289063 0.0334375 3.0025 -0.875 3.07421875 C-3.44378882 3.4867818 -5.21153515 4.19989082 -7.453125 5.48828125 C-5.20937677 1.89035164 -4.29874807 0.60785465 0 0 Z " fill="#C59940" transform="translate(674.453125,815.51171875)"/>
<path d="M0 0 C0.99 0.33 1.98 0.66 3 1 C-2.94282252 5.80193682 -9.22479272 9.48785211 -16 13 C-14.77974937 9.3392481 -13.873509 9.07660559 -10.5625 7.3125 C-9.75941406 6.87550781 -8.95632813 6.43851563 -8.12890625 5.98828125 C-6 5 -6 5 -4 5 C-4 4.01 -4 3.02 -4 2 C-2.68 2 -1.36 2 0 2 C0 1.34 0 0.68 0 0 Z " fill="#D37C44" transform="translate(634,583)"/>
<path d="M0 0 C1.65 0 3.3 0 5 0 C5.33 1.32 5.66 2.64 6 4 C4.68 3.67 3.36 3.34 2 3 C-0.475 8.94 -0.475 8.94 -3 15 C-3.33 15 -3.66 15 -4 15 C-4 13.02 -4 11.04 -4 9 C-3.34 9 -2.68 9 -2 9 C-1.855625 8.071875 -1.71125 7.14375 -1.5625 6.1875 C-1 3 -1 3 0 0 Z " fill="#E49B3B" transform="translate(421,421)"/>
<path d="M0 0 C2.88949684 0.31237804 4.58633099 0.64338879 6.8125 2.5625 C8.59573144 6.22281717 8.32716252 8.94318473 8 13 C7.34 13.66 6.68 14.32 6 15 C3.875 14.625 3.875 14.625 2 14 C2.99 13.34 3.98 12.68 5 12 C5.39507893 7.65413172 5.45331002 5.67996503 3 2 C2.01 1.34 1.02 0.68 0 0 Z " fill="#E0A945" transform="translate(455,828)"/>
<path d="M0 0 C0.33 0.66 0.66 1.32 1 2 C-0.20552826 4.18185733 -1.44859669 6.2331821 -2.8125 8.3125 C-5.26387207 12.09009431 -7.48640765 15.73150939 -9 20 C-9.66 20 -10.32 20 -11 20 C-9.56952311 14.89115395 -7.28610306 10.98255739 -4.375 6.625 C-3.95476562 5.98433594 -3.53453125 5.34367187 -3.1015625 4.68359375 C-2.07370232 3.11844302 -1.03768114 1.55865686 0 0 Z " fill="#D49B3C" transform="translate(385,330)"/>
<path d="M0 0 C0.99 0.99 1.98 1.98 3 3 C2.67 3.33 2.34 3.66 2 4 C1.84193469 5.92478813 1.748865 7.8549921 1.68359375 9.78515625 C1.64169922 10.95498047 1.59980469 12.12480469 1.55664062 13.33007812 C1.51732422 14.56177734 1.47800781 15.79347656 1.4375 17.0625 C1.39431641 18.29806641 1.35113281 19.53363281 1.30664062 20.80664062 C1.20015802 23.87097335 1.09814576 26.93539073 1 30 C0.67 30 0.34 30 0 30 C0 20.1 0 10.2 0 0 Z " fill="#232A2C" transform="translate(556,738)"/>
<path d="M0 0 C0.33 0.66 0.66 1.32 1 2 C0.06421005 4.35981813 -0.93347808 6.69631264 -2 9 C-2.66 9 -3.32 9 -4 9 C-4 10.65 -4 12.3 -4 14 C-4.99 14.33 -5.98 14.66 -7 15 C-6.54636829 13.41531323 -6.08688548 11.83230076 -5.625 10.25 C-5.36976563 9.36828125 -5.11453125 8.4865625 -4.8515625 7.578125 C-4.07235106 5.21904448 -3.26171708 3.13817703 -2 1 C-1.34 0.67 -0.68 0.34 0 0 Z " fill="#E0A039" transform="translate(373,354)"/>
<path d="M0 0 C0.33 0 0.66 0 1 0 C1.31620422 6.79839071 0.12676382 13.30983984 -1 20 C-1.99 20.33 -2.98 20.66 -4 21 C-3.35401634 16.12689995 -2.49028264 11.36868161 -1.4375 6.5625 C-1.03337891 4.70818359 -1.03337891 4.70818359 -0.62109375 2.81640625 C-0.31365234 1.42228516 -0.31365234 1.42228516 0 0 Z " fill="#3A3115" transform="translate(428,305)"/>
<path d="M0 0 C0.66 0.99 1.32 1.98 2 3 C1.34 3 0.68 3 0 3 C-0.04125 3.5775 -0.0825 4.155 -0.125 4.75 C-1.44065958 8.13312465 -3.96552364 9.19222685 -7 11 C-7.66 10.67 -8.32 10.34 -9 10 C-6.03 6.7 -3.06 3.4 0 0 Z " fill="#282716" transform="translate(685,816)"/>
<path d="M0 0 C0.33 0.66 0.66 1.32 1 2 C0.0625 4.625 0.0625 4.625 -1 7 C-1.66 7 -2.32 7 -3 7 C-3.66 8.98 -4.32 10.96 -5 13 C-6.32 12.34 -7.64 11.68 -9 11 C-8.51789062 10.45730469 -8.03578125 9.91460938 -7.5390625 9.35546875 C-6.90742187 8.64003906 -6.27578125 7.92460938 -5.625 7.1875 C-4.68527344 6.12595703 -4.68527344 6.12595703 -3.7265625 5.04296875 C-1.859401 2.91196181 -1.859401 2.91196181 0 0 Z " fill="#D87D42" transform="translate(598,526)"/>
<path d="M0 0 C1.09898702 3.29696105 0.87124444 4.40494903 0.0625 7.6875 C-0.13214844 8.49574219 -0.32679688 9.30398438 -0.52734375 10.13671875 C-0.68332031 10.75160156 -0.83929687 11.36648438 -1 12 C-1.66 10.68 -2.32 9.36 -3 8 C-3.99 9.32 -4.98 10.64 -6 12 C-6.66 11.67 -7.32 11.34 -8 11 C-5.36 7.37 -2.72 3.74 0 0 Z " fill="#C48048" transform="translate(697,484)"/>
<path d="M0 0 C1.71089262 3.42178524 2.70096753 6.20687111 3.625 9.875 C3.88539063 10.88304687 4.14578125 11.89109375 4.4140625 12.9296875 C5.00582246 16.0305097 5.10338133 18.85156869 5 22 C4.67 22 4.34 22 4 22 C3.67 19.03 3.34 16.06 3 13 C2.34 13 1.68 13 1 13 C0.67 8.71 0.34 4.42 0 0 Z " fill="#D7B74F" transform="translate(584,260)"/>
<path d="M0 0 C4.57756359 0.31210661 8.00574046 1.81266739 12 4 C11.42655063 6.86724686 11.1385485 7.8614515 9 10 C9 8.02 9 6.04 9 4 C5.37 3.34 1.74 2.68 -2 2 C-1.34 1.34 -0.68 0.68 0 0 Z " fill="#DEAC49" transform="translate(392,817)"/>
<path d="M0 0 C0.66 0 1.32 0 2 0 C2.09038099 5.15171623 1.84681133 9.91913204 1 15 C-0.32 13.68 -1.64 12.36 -3 11 C-2.01 10.67 -1.02 10.34 0 10 C0 6.7 0 3.4 0 0 Z " fill="#D27D47" transform="translate(511,512)"/>
<path d="M0 0 C2.8842454 0.34485543 3.8207818 0.78255407 5.703125 3.06640625 C6.21359375 3.89011719 6.7240625 4.71382813 7.25 5.5625 C7.77078125 6.38878906 8.2915625 7.21507812 8.828125 8.06640625 C9.21484375 8.70449219 9.6015625 9.34257812 10 10 C9.34 10.66 8.68 11.32 8 12 C7.0234375 10.20963542 6.046875 8.41927083 5.0703125 6.62890625 C4.08589976 4.83381685 4.08589976 4.83381685 2 4 C2 3.34 2 2.68 2 2 C0.35 2.66 -1.3 3.32 -3 4 C-2.01 2.68 -1.02 1.36 0 0 Z " fill="#3A2E10" transform="translate(585,391)"/>
<path d="M0 0 C2.06568201 3.09852301 3.60295419 6.19392874 5.1875 9.5625 C5.73792969 10.71878906 6.28835938 11.87507813 6.85546875 13.06640625 C7.23316406 14.03449219 7.61085938 15.00257813 8 16 C7.67 16.66 7.34 17.32 7 18 C6.566875 17.236875 6.13375 16.47375 5.6875 15.6875 C4.2183527 13.05397649 4.2183527 13.05397649 2.4375 11.65625 C0.4895726 9.41189887 0.50290903 7.74479914 0.3125 4.8125 C0.24675781 3.91144531 0.18101562 3.01039063 0.11328125 2.08203125 C0.07589844 1.39496094 0.03851563 0.70789063 0 0 Z " fill="#D69F40" transform="translate(428,370)"/>
<path d="M0 0 C0.33 0 0.66 0 1 0 C1.34518199 5.63797249 0.63930407 9.11239987 -2 14 C-2.99 14.33 -3.98 14.66 -5 15 C-3.33333333 10 -1.66666667 5 0 0 Z " fill="#E4BB45" transform="translate(620,322)"/>
<path d="M0 0 C1.60031344 3.20062687 0.03173691 5.72271806 -1 9 C-1.99 9 -2.98 9 -4 9 C-5.07525194 11.65228812 -6.09456151 14.28368454 -7 17 C-7.66 17 -8.32 17 -9 17 C-7.51481201 12.95698825 -5.57122002 9.38853744 -3.375 5.6875 C-2.74335938 4.61886719 -2.11171875 3.55023438 -1.4609375 2.44921875 C-0.97882813 1.64097656 -0.49671875 0.83273437 0 0 Z " fill="#D99D3D" transform="translate(496,259)"/>
<path d="M0 0 C0.66 0 1.32 0 2 0 C-1.07769995 11.04479557 -1.07769995 11.04479557 -4 16 C-4.66 16.33 -5.32 16.66 -6 17 C-5.34 14.36 -4.68 11.72 -4 9 C-3.34 9 -2.68 9 -2 9 C-2.04125 8.2575 -2.0825 7.515 -2.125 6.75 C-1.99601866 3.91241048 -1.42948778 2.41226062 0 0 Z " fill="#E48040" transform="translate(525,462)"/>
<path d="M0 0 C2.47266124 2.26237627 4.063866 4.57453333 5.6875 7.5 C6.12449219 8.2734375 6.56148437 9.046875 7.01171875 9.84375 C8 12 8 12 8 15 C7.34 15 6.68 15 6 15 C4.23537317 11.91190305 4 10.76687864 4 7 C3.34 7 2.68 7 2 7 C2 6.01 2 5.02 2 4 C1.34 4 0.68 4 0 4 C0 2.68 0 1.36 0 0 Z " fill="#E8BE48" transform="translate(559,206)"/>
<path d="M0 0 C0.66 0 1.32 0 2 0 C1.39363767 5.76044212 -0.75658279 10.72014369 -3 16 C-3.33 16 -3.66 16 -4 16 C-4 14.02 -4 12.04 -4 10 C-3.34 10 -2.68 10 -2 10 C-1.34 6.7 -0.68 3.4 0 0 Z " fill="#322415" transform="translate(605,504)"/>
<path d="M0 0 C0.66 0.99 1.32 1.98 2 3 C1.04855402 4.81612488 0.08863067 6.62781081 -0.875 8.4375 C-1.40867187 9.44683594 -1.94234375 10.45617187 -2.4921875 11.49609375 C-4 14 -4 14 -6 15 C-6 13.68 -6 12.36 -6 11 C-5.34 11 -4.68 11 -4 11 C-3.71125 9.9275 -3.4225 8.855 -3.125 7.75 C-2.27179891 4.90599636 -1.4363497 2.56491017 0 0 Z " fill="#373211" transform="translate(615,330)"/>
<path d="M0 0 C0 3.6952982 -0.72136847 5.11373339 -3 8 C-6.1875 8.8125 -6.1875 8.8125 -9 9 C-6 6 -3 3 0 0 Z " fill="#DB7838" transform="translate(620,567)"/>
<path d="M0 0 C0.33 0 0.66 0 1 0 C1.04241723 2.33294775 1.04092937 4.66702567 1 7 C0.67 7.33 0.34 7.66 0 8 C-0.07226502 9.85287502 -0.0838122 11.70833878 -0.0625 13.5625 C-0.05347656 14.57441406 -0.04445313 15.58632813 -0.03515625 16.62890625 C-0.02355469 17.41136719 -0.01195312 18.19382812 0 19 C-0.66 18.67 -1.32 18.34 -2 18 C-2 13.38 -2 8.76 -2 4 C-1.34 4 -0.68 4 0 4 C0 2.68 0 1.36 0 0 Z " fill="#303015" transform="translate(592,340)"/>
<path d="M0 0 C-3.31371 2.20914 -4.3446021 2.22481553 -8.1875 2.125 C-9.08855469 2.10695313 -9.98960937 2.08890625 -10.91796875 2.0703125 C-11.60503906 2.04710937 -12.29210937 2.02390625 -13 2 C-13.33 1.34 -13.66 0.68 -14 0 C-12.41773035 -0.19627391 -10.83410729 -0.38165538 -9.25 -0.5625 C-8.36828125 -0.66691406 -7.4865625 -0.77132812 -6.578125 -0.87890625 C-4.11567549 -0.99456676 -2.33461936 -0.73638695 0 0 Z " fill="#252612" transform="translate(394,869)"/>
<path d="M0 0 C4.29 0.33 8.58 0.66 13 1 C13.33 1.99 13.66 2.98 14 4 C9.03083364 3.48594831 4.70973649 2.76615118 0 1 C0 0.67 0 0.34 0 0 Z " fill="#D1783F" transform="translate(456,608)"/>
<path d="M0 0 C1.77433812 0.93084971 3.54435149 1.86994613 5.3125 2.8125 C6.29863281 3.33457031 7.28476562 3.85664062 8.30078125 4.39453125 C10.61665068 5.7719876 12.23611001 6.99530591 14 9 C11.99041337 8.36281399 9.99263591 7.68836513 8 7 C7.36578125 6.78214844 6.7315625 6.56429687 6.078125 6.33984375 C4.1875 5.625 4.1875 5.625 1 4 C0.30078125 1.8984375 0.30078125 1.8984375 0 0 Z " fill="#392413" transform="translate(411,587)"/>
<path d="M0 0 C1.21386936 3.64160808 0.6674695 4.33165469 -0.9375 7.6875 C-1.31777344 8.49574219 -1.69804688 9.30398438 -2.08984375 10.13671875 C-2.39019531 10.75160156 -2.69054687 11.36648438 -3 12 C-5 8.25 -5 8.25 -5 6 C-4.34 5.67 -3.68 5.34 -3 5 C-2.835 4.34 -2.67 3.68 -2.5 3 C-2.335 2.34 -2.17 1.68 -2 1 C-1.34 0.67 -0.68 0.34 0 0 Z " fill="#E69F3A" transform="translate(677,460)"/>
<path d="M0 0 C0.66 0 1.32 0 2 0 C1.34580901 5.06998019 -0.8546409 9.41990777 -3 14 C-3.33 14 -3.66 14 -4 14 C-4.68041782 8.72676192 -2.24786337 4.60611289 0 0 Z " fill="#E48341" transform="translate(531,448)"/>
<path d="M0 0 C0.33 0 0.66 0 1 0 C1.68041782 5.27323808 -0.75213663 9.39388711 -3 14 C-3.66 14 -4.32 14 -5 14 C-4.54636829 12.41531323 -4.08688548 10.83230076 -3.625 9.25 C-3.36976563 8.36828125 -3.11453125 7.4865625 -2.8515625 6.578125 C-2.0790066 4.23919428 -1.16374324 2.16557438 0 0 Z " fill="#3A3111" transform="translate(434,290)"/>
<path d="M0 0 C1.20409259 3.99930753 0.58887092 6.10726626 -1 10 C-1.9563874 11.69207001 -2.94410931 13.36816893 -4 15 C-5 13 -5 13 -4.00390625 9.9609375 C-3.52824219 8.77757812 -3.05257813 7.59421875 -2.5625 6.375 C-2.08941406 5.18648437 -1.61632812 3.99796875 -1.12890625 2.7734375 C-0.75636719 1.85820313 -0.38382812 0.94296875 0 0 Z " fill="#D9A848" transform="translate(499,842)"/>
<path d="M0 0 C-5.1468192 3.16727335 -9.158256 3.35050464 -15 3 C-5.21459227 -2.08583691 -5.21459227 -2.08583691 0 0 Z " fill="#392415" transform="translate(589,610)"/>
<path d="M0 0 C0.66 0 1.32 0 2 0 C2 0.66 2 1.32 2 2 C2.99 2.33 3.98 2.66 5 3 C5.33 5.31 5.66 7.62 6 10 C4.02 10.99 4.02 10.99 2 12 C2.226875 10.948125 2.45375 9.89625 2.6875 8.8125 C3.03180444 4.61198583 2.48772258 3.2837938 0 0 Z " fill="#DC7F43" transform="translate(393,522)"/>
<path d="M0 0 C0.99 0.33 1.98 0.66 3 1 C4.1875 4.5625 4.1875 4.5625 5 8 C5.66 8 6.32 8 7 8 C6.67 8.66 6.34 9.32 6 10 C2.46413986 6.82679218 0.41421969 4.83256305 0 0 Z " fill="#E98140" transform="translate(496,500)"/>
<path d="M0 0 C-0.66 1.98 -1.32 3.96 -2 6 C-2.33 5.01 -2.66 4.02 -3 3 C-3.928125 3.515625 -4.85625 4.03125 -5.8125 4.5625 C-9 6 -9 6 -12 5 C-10.37750059 4.16180842 -8.75191503 3.3295884 -7.125 2.5 C-6.22007812 2.0359375 -5.31515625 1.571875 -4.3828125 1.09375 C-2 0 -2 0 0 0 Z " fill="#D5A34B" transform="translate(436,286)"/>
<path d="M0 0 C0.33 0 0.66 0 1 0 C1.45732667 5.71658336 0.52273754 8.48649253 -3 13 C-4 11 -4 11 -3.22265625 8.3984375 C-2.83980469 7.40070313 -2.45695313 6.40296875 -2.0625 5.375 C-1.68222656 4.37210938 -1.30195312 3.36921875 -0.91015625 2.3359375 C-0.60980469 1.56507813 -0.30945313 0.79421875 0 0 Z " fill="#DA9F43" transform="translate(516,212)"/>
<path d="M0 0 C4.62 0.66 9.24 1.32 14 2 C14.33 1.34 14.66 0.68 15 0 C15.33 0.99 15.66 1.98 16 3 C13.70890403 3.08075665 11.41700733 3.13907731 9.125 3.1875 C7.21074219 3.23970703 7.21074219 3.23970703 5.2578125 3.29296875 C4.18273437 3.19628906 3.10765625 3.09960938 2 3 C1.34 2.01 0.68 1.02 0 0 Z " fill="#E2B155" transform="translate(669,865)"/>
<path d="M0 0 C1.45823212 -0.0270043 2.91660675 -0.04639787 4.375 -0.0625 C5.18710937 -0.07410156 5.99921875 -0.08570313 6.8359375 -0.09765625 C9 0 9 0 11 1 C11 1.66 11 2.32 11 3 C9.54077307 2.88590407 8.08259402 2.75834456 6.625 2.625 C5.40683594 2.52058594 5.40683594 2.52058594 4.1640625 2.4140625 C2 2 2 2 0 0 Z " fill="#373215" transform="translate(377,855)"/>
<path d="M0 0 C2.30874711 2.16614803 4.05290181 4.39206608 5.75 7.0625 C6.19859375 7.75472656 6.6471875 8.44695313 7.109375 9.16015625 C7.40328125 9.76730469 7.6971875 10.37445312 8 11 C7.67 11.66 7.34 12.32 7 13 C2.18602057 8.94612259 1.11458074 5.9782058 0 0 Z " fill="#D77D40" transform="translate(457,576)"/>
<path d="M0 0 C9.59453303 1.55808656 9.59453303 1.55808656 13 6 C11.39253944 5.57476184 9.78910164 5.13429874 8.1875 4.6875 C7.29417969 4.44386719 6.40085937 4.20023438 5.48046875 3.94921875 C2.94752262 2.9799181 1.7283504 2.04990396 0 0 Z " fill="#CC763F" transform="translate(593,539)"/>
<path d="M0 0 C2.8045156 1.4022578 3.0442118 3.06070622 4.1875 5.9375 C4.55230469 6.83339844 4.91710937 7.72929688 5.29296875 8.65234375 C6 11 6 11 5 13 C1.55834073 8.77614544 0 5.49939416 0 0 Z " fill="#D77D44" transform="translate(419,518)"/>
<path d="M0 0 C0.33 0 0.66 0 1 0 C1.16682272 4.92127034 1.24828052 8.50343896 -1 13 C-1.66 13 -2.32 13 -3 13 C-2.01 8.71 -1.02 4.42 0 0 Z " fill="#392817" transform="translate(698,485)"/>
<path d="M0 0 C0 2.83967231 -0.40267181 5.23735711 -1 8 C-1.99 8.33 -2.98 8.66 -4 9 C-5.66710346 10.49985609 -5.66710346 10.49985609 -7 12 C-5.44298069 7.32894208 -2.91552627 3.91294315 0 0 Z " fill="#382B12" transform="translate(544,432)"/>
<path d="M0 0 C3.42931954 3.7559214 4.56429083 8.23466745 6 13 C5.34 12.67 4.68 12.34 4 12 C4 11.34 4 10.68 4 10 C3.34 10 2.68 10 2 10 C0.68373308 6.38026598 0 3.90432869 0 0 Z " fill="#393011" transform="translate(597,406)"/>
<path d="M0 0 C1.60080151 4.00200378 0.29279692 7.04556236 -1 11 C-1.66 11 -2.32 11 -3 11 C-3.33 11.99 -3.66 12.98 -4 14 C-3.46148032 8.72250715 -2.22656164 4.74354436 0 0 Z " fill="#D8993E" transform="translate(462,318)"/>
<path d="M0 0 C2.8751945 1.28888029 5.0071564 2.53266983 7 5 C7.36682539 6.32451048 7.70448999 7.65777695 8 9 C6.84775972 8.07038578 5.70340824 7.1309875 4.5625 6.1875 C3.60537109 5.40439453 3.60537109 5.40439453 2.62890625 4.60546875 C1 3 1 3 0 0 Z " fill="#2C2A12" transform="translate(625,274)"/>
<path d="M0 0 C3.96788998 2.03756512 6.26609244 3.81822294 8 8 C7.1875 10.3125 7.1875 10.3125 6 12 C5.71125 11.0925 5.4225 10.185 5.125 9.25 C4.23468224 6.67797092 3.28505587 4.38653234 2 2 C1.34 2 0.68 2 0 2 C0 1.34 0 0.68 0 0 Z " fill="#D3A340" transform="translate(601,820)"/>
<path d="M0 0 C3.02419525 0.58803797 6.01758453 1.22678118 9 2 C9 3.65 9 5.3 9 7 C7.4972763 6.02501855 5.99788037 5.04490611 4.5 4.0625 C3.6646875 3.51722656 2.829375 2.97195313 1.96875 2.41015625 C1.3190625 1.94480469 0.669375 1.47945312 0 1 C0 0.67 0 0.34 0 0 Z " fill="#383318" transform="translate(462,818)"/>
<path d="M0 0 C0.33 0.66 0.66 1.32 1 2 C-0.55599625 6.50419967 -1.81168455 9.5447806 -6 12 C-4.43358249 7.69235185 -2.31663844 3.93828536 0 0 Z " fill="#362315" transform="translate(683,530)"/>
<path d="M0 0 C0.33 0 0.66 0 1 0 C1.16682272 4.92127034 1.24828052 8.50343896 -1 13 C-1.66 13 -2.32 13 -3 13 C-2.01 8.71 -1.02 4.42 0 0 Z " fill="#392715" transform="translate(694,501)"/>
<path d="M0 0 C2.4375 0.625 2.4375 0.625 5 2 C5.8125 5.125 5.8125 5.125 6 8 C1.125 3.375 1.125 3.375 0 0 Z " fill="#E7AF42" transform="translate(661,854)"/>
<path d="M0 0 C0.66 0 1.32 0 2 0 C1.55037804 1.96035175 1.09001752 3.91824309 0.625 5.875 C0.36976563 6.96554687 0.11453125 8.05609375 -0.1484375 9.1796875 C-1 12 -1 12 -3 14 C-2.69024532 12.22868439 -2.37709575 10.45796222 -2.0625 8.6875 C-1.88847656 7.70136719 -1.71445312 6.71523438 -1.53515625 5.69921875 C-1 3 -1 3 0 0 Z " fill="#37330D" transform="translate(620,316)"/>
<path d="M0 0 C0 0.66 0 1.32 0 2 C1.32 2.33 2.64 2.66 4 3 C-1.94 3.495 -1.94 3.495 -8 4 C-2.66666667 0 -2.66666667 0 0 0 Z " fill="#A16743" transform="translate(556,613)"/>
<path d="M0 0 C0 0.66 0 1.32 0 2 C-0.99 2 -1.98 2 -3 2 C-3 2.66 -3 3.32 -3 4 C-6 6 -6 6 -8.1875 5.625 C-8.785625 5.41875 -9.38375 5.2125 -10 5 C-8.71186658 4.16121545 -7.41936744 3.32913217 -6.125 2.5 C-5.40570312 2.0359375 -4.68640625 1.571875 -3.9453125 1.09375 C-2 0 -2 0 0 0 Z " fill="#CD763B" transform="translate(578,601)"/>
<path d="M0 0 C1.32 0.33 2.64 0.66 4 1 C2.37660195 2.70884005 0.70680947 4.37446717 -1 6 C-1.66 6 -2.32 6 -3 6 C-3 5.01 -3 4.02 -3 3 C-2.34 3 -1.68 3 -1 3 C-0.67 2.01 -0.34 1.02 0 0 Z " fill="#DE7D3E" transform="translate(650,569)"/>
<path d="M0 0 C2 0.9375 2 0.9375 4 3 C4.36475845 6.02534949 4.22893297 8.96663814 4 12 C2.09681116 9.14521674 1.5380901 7.58058692 0.875 4.3125 C0.70742188 3.50425781 0.53984375 2.69601562 0.3671875 1.86328125 C0.24601562 1.24839844 0.12484375 0.63351562 0 0 Z " fill="#CD8B52" transform="translate(347,502)"/>
<path d="M0 0 C0.99 0.495 0.99 0.495 2 1 C2 1.66 2 2.32 2 3 C2.639375 3.268125 3.27875 3.53625 3.9375 3.8125 C6 5 6 5 7 8 C6.01 8.495 6.01 8.495 5 9 C0 3.375 0 3.375 0 0 Z " fill="#E47E3D" transform="translate(466,460)"/>
<path d="M0 0 C0.33 0.66 0.66 1.32 1 2 C-0.25 4.625 -0.25 4.625 -2 7 C-2.99 7 -3.98 7 -5 7 C-3.70700306 4.11562221 -2.34058637 2.12780579 0 0 Z " fill="#393018" transform="translate(556,417)"/>
<path d="M0 0 C0 0.66 0 1.32 0 2 C-1.53125 3.5078125 -1.53125 3.5078125 -3.5 5.125 C-4.1496875 5.66382813 -4.799375 6.20265625 -5.46875 6.7578125 C-5.9740625 7.16773438 -6.479375 7.57765625 -7 8 C-7.66 7.67 -8.32 7.34 -9 7 C-7.88121617 5.82737096 -6.75476949 4.66204862 -5.625 3.5 C-4.68527344 2.52546875 -4.68527344 2.52546875 -3.7265625 1.53125 C-2 0 -2 0 0 0 Z " fill="#342B11" transform="translate(574,401)"/>
<path d="M0 0 C0.66 1.32 1.32 2.64 2 4 C-1.82989106 5.80230168 -4.78121808 6.19622241 -9 6 C-9 5.67 -9 5.34 -9 5 C-8.071875 4.731875 -7.14375 4.46375 -6.1875 4.1875 C-3.23759634 3.08851629 -1.94384814 2.37581439 0 0 Z " fill="#E6B03E" transform="translate(601,355)"/>
<path d="M0 0 C-0.33 0.99 -0.66 1.98 -1 3 C-2.98 3 -4.96 3 -7 3 C-7.33 2.34 -7.66 1.68 -8 1 C-5.10765685 0.17361624 -3.11257569 0 0 0 Z " fill="#2E261B" transform="translate(556,616)"/>
<path d="M0 0 C0.99 0 1.98 0 3 0 C3.33 1.65 3.66 3.3 4 5 C4.66 5 5.32 5 6 5 C5.67 6.32 5.34 7.64 5 9 C4.16094435 7.87926138 3.32892169 6.75325453 2.5 5.625 C2.0359375 4.99851562 1.571875 4.37203125 1.09375 3.7265625 C0 2 0 2 0 0 Z " fill="#3A2615" transform="translate(473,599)"/>
<path d="M0 0 C0.6875 1.8125 0.6875 1.8125 1 4 C-0.4375 5.75 -0.4375 5.75 -2 7 C-2.99 6.67 -3.98 6.34 -5 6 C-3.35 4.02 -1.7 2.04 0 0 Z " fill="#2F2A16" transform="translate(550,424)"/>
<path d="M0 0 C0.66 0.33 1.32 0.66 2 1 C-2.30769231 5.92307692 -2.30769231 5.92307692 -5.8125 6.3125 C-6.8953125 6.1578125 -6.8953125 6.1578125 -8 6 C-6.68 5.67 -5.36 5.34 -4 5 C-4 4.01 -4 3.02 -4 2 C-2.125 0.9375 -2.125 0.9375 0 0 Z " fill="#312A0B" transform="translate(600,354)"/>
<path d="M0 0 C0 0.99 0 1.98 0 3 C-2.375 4.75 -2.375 4.75 -5 6 C-5.66 5.67 -6.32 5.34 -7 5 C-6.01 4.67 -5.02 4.34 -4 4 C-4 3.01 -4 2.02 -4 1 C-2 0 -2 0 0 0 Z " fill="#E47934" transform="translate(568,607)"/>
<path d="M0 0 C0.66 0.33 1.32 0.66 2 1 C-0.57404971 4.86107457 -2.61020259 4.94319692 -7 6 C-4.74259377 3.66475218 -2.7194239 1.81294927 0 0 Z " fill="#CD743A" transform="translate(585,595)"/>
<path d="M0 0 C0.33 0.99 0.66 1.98 1 3 C-1.97 5.475 -1.97 5.475 -5 8 C-5.66 7.67 -6.32 7.34 -7 7 C-4.69 4.69 -2.38 2.38 0 0 Z " fill="#D6773A" transform="translate(628,559)"/>
<path d="M0 0 C1.98 0.99 1.98 0.99 4 2 C4 2.99 4 3.98 4 5 C4.66 5 5.32 5 6 5 C5.67 5.99 5.34 6.98 5 8 C0 2.25 0 2.25 0 0 Z " fill="#DB8245" transform="translate(367,543)"/>
<path d="M0 0 C0 3 0 3 -1 6 C-3.5625 7.1875 -3.5625 7.1875 -6 8 C-2.25 2.25 -2.25 2.25 0 0 Z " fill="#312012" transform="translate(660,493)"/>
</svg>
